<svg xmlns="http://www.w3.org/2000/svg" height="24" viewBox="0 96 960 960" width="24"><path d="M347.692 740.616h264.616V734q0-35-35.154-54.192Q542 660.615 480 660.615q-62 0-97.154 19.193Q347.692 699 347.692 734v6.616ZM480 596q25.308 0 42.654-17.346Q540 561.308 540 536q0-25.308-17.346-42.654Q505.308 476 480 476q-25.308 0-42.654 17.346Q420 510.692 420 536q0 25.308 17.346 42.654Q454.692 596 480 596ZM184.615 896Q157 896 138.5 877.5 120 859 120 831.385v-430.77Q120 373 138.5 354.5 157 336 184.615 336h118.308l74-80h206.154l74 80h118.308Q803 336 821.5 354.5 840 373 840 400.615v430.77Q840 859 821.5 877.5 803 896 775.385 896h-590.77Zm590.77-40q10.769 0 17.692-6.923T800 831.385v-430.77q0-10.769-6.923-17.692T775.385 376H639.538l-73.769-80H394.231l-73.769 80H184.615q-10.769 0-17.692 6.923T160 400.615v430.77q0 10.769 6.923 17.692T184.615 856h590.77ZM480 576Z"/></svg>