<svg xmlns="http://www.w3.org/2000/svg" height="24" viewBox="0 96 960 960" width="24"><path d="M460 676h40V556h120v-40H500V396h-40v120H340v40h120v120ZM360 896v-80H184.615Q157 816 138.5 797.5 120 779 120 751.385v-430.77Q120 293 138.5 274.5 157 256 184.615 256h590.77Q803 256 821.5 274.5 840 293 840 320.615v430.77Q840 779 821.5 797.5 803 816 775.385 816H600v80H360ZM184.615 776h590.77q9.23 0 16.923-7.692Q800 760.615 800 751.385v-430.77q0-9.23-7.692-16.923Q784.615 296 775.385 296h-590.77q-9.23 0-16.923 7.692Q160 311.385 160 320.615v430.77q0 9.23 7.692 16.923Q175.385 776 184.615 776ZM160 776V296v480Z"/></svg>