<svg xmlns="http://www.w3.org/2000/svg" height="24" viewBox="0 96 960 960" width="24"><path d="M716.923 596v-40h129.231v40H716.923Zm43.385 258.462-103.385-77.539 24.923-31.692 103.385 77.538-24.923 31.693Zm-81.539-450.77L653.846 372l103.385-77.539 24.923 31.693-103.385 77.538ZM220 814.462V662.154h-41.539q-26.846 0-45.73-18.885-18.885-18.884-18.885-45.73v-43.078q0-26.846 18.885-45.73 18.884-18.885 45.73-18.885h149.231L486.154 396v360l-158.462-93.846H260v152.308h-40ZM300 576Zm256.923 115.539V460.461q20.077 18.616 32.346 48.885 12.27 30.269 12.27 66.654t-12.27 66.654Q577 672.923 556.923 691.539ZM178.461 529.846q-9.23 0-16.923 7.692-7.692 7.693-7.692 16.923v43.078q0 9.23 7.692 16.923 7.693 7.692 16.923 7.692h160.462l107.231 62.615V467.231l-107.231 62.615H178.461Z"/></svg>