<svg xmlns="http://www.w3.org/2000/svg" width="40.099" height="35.743" viewBox="0 0 40.099 35.743">
  <g id="AnnouncementOutlined" transform="translate(-109.527 -288.054)">
    <g id="Path_53" data-name="Path 53" transform="translate(109.527 288.966)" fill="none">
      <path d="M7.426-.913H32.673A7.625,7.625,0,0,1,40.1,6.9V20.954a7.625,7.625,0,0,1-7.426,7.81H7.426A7.625,7.625,0,0,1,0,20.954V6.9A7.625,7.625,0,0,1,7.426-.913Z" stroke="none"/>
      <path d="M 7.425678253173828 1.087253570556641 C 4.433944702148438 1.087253570556641 1.999996185302734 3.693422317504883 1.999996185302734 6.896842956542969 L 1.999996185302734 20.95409202575684 C 1.999996185302734 24.15750312805176 4.433944702148438 26.763671875 7.425678253173828 26.763671875 L 32.67296600341797 26.763671875 C 35.66468811035156 26.763671875 38.09863662719727 24.15750312805176 38.09863662719727 20.95409202575684 L 38.09863662719727 6.896842956542969 C 38.09863662719727 3.693422317504883 35.66468811035156 1.087253570556641 32.67296600341797 1.087253570556641 L 7.425678253173828 1.087253570556641 M 7.425678253173828 -0.9127464294433594 L 32.67296600341797 -0.9127464294433594 C 36.7740478515625 -0.9127464294433594 40.09863662719727 2.583723068237305 40.09863662719727 6.896842956542969 L 40.09863662719727 20.95409202575684 C 40.09863662719727 25.26720237731934 36.7740478515625 28.763671875 32.67296600341797 28.763671875 L 7.425678253173828 28.763671875 C 3.3245849609375 28.763671875 -3.814697265625e-06 25.26720237731934 -3.814697265625e-06 20.95409202575684 L -3.814697265625e-06 6.896842956542969 C -3.814697265625e-06 2.583723068237305 3.3245849609375 -0.9127464294433594 7.425678253173828 -0.9127464294433594 Z" stroke="none" fill="#003a5d"/>
    </g>
    <g id="Path_51" data-name="Path 51" transform="translate(119.659 318.486)" fill="none" stroke-linecap="square">
      <path d="M2.445-1l15,.058,2.388,4.621H0Z" stroke="none"/>
      <path d="M 2.445371627807617 -1.002925872802734 L 17.44655227661133 -0.9444658756256104 L 19.8349609375 3.676753997802734 L 1.9073486328125e-06 3.676753997802734 L 2.445371627807617 -1.002925872802734 Z" stroke="none" fill="#003a5d"/>
    </g>
    <path id="Path_55" data-name="Path 55" d="M0,0H23.974" transform="translate(117.59 322.797)" fill="none" stroke="#003a5d" stroke-linecap="round" stroke-width="2"/>
    <g id="Group_60" data-name="Group 60" transform="translate(89.035 -20.439) rotate(17)">
      <g id="Path_52" data-name="Path 52" transform="matrix(0.839, -0.545, 0.545, 0.839, 119.684, 294.966)" fill="#fff">
        <path d="M 14.75763320922852 15.85359668731689 L 7.636206150054932 11.66311264038086 L 7.385046005249023 11.5153226852417 L 7.09380578994751 11.52559280395508 L 2.172915935516357 11.69914245605469 C 2.153516054153442 11.69983291625977 2.134115934371948 11.70017242431641 2.114886045455933 11.70017242431641 C 1.707565903663635 11.70017242431641 1.331555962562561 11.54320240020752 1.056115984916687 11.2581729888916 C 0.7586459517478943 10.95036220550537 0.6035759449005127 10.52495288848877 0.6194659471511841 10.06032276153564 L 0.7140759229660034 7.293322563171387 C 0.7480859160423279 6.298832893371582 1.578425884246826 5.430392742156982 2.527266025543213 5.396922588348389 L 7.448155879974365 5.223372459411621 L 7.74574613571167 5.212872505187988 L 7.989125728607178 5.041292667388916 L 14.54050159454346 0.4223966896533966 C 14.9675178527832 0.4467312097549438 15.30313587188721 0.5666481852531433 15.49595546722412 0.7661826610565186 C 15.66865634918213 0.9448926448822021 15.74992561340332 1.219742655754089 15.7374963760376 1.583112597465515 L 15.73668575286865 1.606882691383362 L 15.73700618743896 1.630652666091919 L 15.90701675415039 14.35045623779297 C 15.86120796203613 15.47858333587646 15.2877197265625 15.77712059020996 14.75763320922852 15.85359668731689 Z" stroke="none"/>
        <path d="M 14.73871994018555 1.506180763244629 L 8.078585624694824 6.201762199401855 L 2.562516212463379 6.396302223205566 C 2.134315490722656 6.411402702331543 1.729636192321777 6.855242729187012 1.713485717773438 7.327492713928223 L 1.618875503540039 10.09450244903564 C 1.612336158752441 10.2857027053833 1.667856216430664 10.45218276977539 1.775205612182617 10.56326293945312 C 1.867818832397461 10.659104347229 1.991542816162109 10.70494079589844 2.137676239013672 10.69976234436035 L 7.641025543212891 10.50567245483398 L 14.83090591430664 14.73642539978027 C 14.86114883422852 14.66420745849609 14.89620590209961 14.53520202636719 14.90670967102051 14.33412933349609 L 14.7364559173584 1.596462249755859 L 14.73808574676514 1.548933029174805 C 14.73861408233643 1.53348445892334 14.73879814147949 1.519251823425293 14.73871994018555 1.506180763244629 M 14.37490749359131 -0.58221435546875 C 15.77962017059326 -0.58221435546875 16.78741264343262 0.1407127380371094 16.73691558837891 1.617292404174805 L 16.90726661682129 14.36246299743652 C 16.85500526428223 15.89063262939453 16.00480651855469 16.82365226745605 14.52316570281982 16.87590217590332 L 7.129055976867676 12.52497291564941 L 2.208166122436523 12.69852256774902 C 0.7265310287475586 12.75076866149902 -0.4322147369384766 11.55431270599365 -0.3799533843994141 10.02614212036133 L -0.2853431701660156 7.259152412414551 C -0.23309326171875 5.730982780456543 1.0103759765625 4.449802398681641 2.492015838623047 4.397542953491211 L 7.412905693054199 4.223992347717285 L 14.22620582580566 -0.5795669555664062 C 14.27621459960938 -0.5813312530517578 14.32583808898926 -0.58221435546875 14.37490749359131 -0.58221435546875 Z" stroke="none" fill="#003a5d"/>
      </g>
      <path id="Path_54" data-name="Path 54" d="M0,0,4.089-.144,3.9,5.339A2.261,2.261,0,0,1,1.785,7.52,1.912,1.912,0,0,1-.187,5.483Z" transform="matrix(0.839, -0.545, 0.545, 0.839, 127.875, 304.286)" fill="#003a5d"/>
      <line id="Line_76" data-name="Line 76" y1="3.854" x2="2.333" transform="translate(138.168 284.003)" fill="none" stroke="#003a5d" stroke-linecap="round" stroke-width="2"/>
      <line id="Line_77" data-name="Line 77" y1="2.587" x2="3.197" transform="translate(143.055 286.563)" fill="none" stroke="#003a5d" stroke-linecap="round" stroke-width="2"/>
      <line id="Line_79" data-name="Line 79" y1="0.843" x2="4.503" transform="translate(143.055 293.912)" fill="none" stroke="#003a5d" stroke-linecap="round" stroke-width="2"/>
    </g>
  </g>
</svg>
