<svg xmlns="http://www.w3.org/2000/svg" width="42" height="41" viewBox="0 0 42 41">
  <g id="AppsOutlined" transform="translate(-47 -206)">
    <g id="Rectangle_184" data-name="Rectangle 184" transform="translate(47 206)" fill="none" stroke="#d6c69c" stroke-width="3">
      <rect width="18" height="18" rx="5" stroke="none"/>
      <rect x="1.5" y="1.5" width="15" height="15" rx="3.5" fill="none"/>
    </g>
    <g id="Rectangle_185" data-name="Rectangle 185" transform="translate(71 206)" fill="none" stroke="#fff" stroke-width="3">
      <rect width="18" height="18" rx="5" stroke="none"/>
      <rect x="1.5" y="1.5" width="15" height="15" rx="3.5" fill="none"/>
    </g>
    <g id="Path_79" data-name="Path 79" transform="translate(47 229)" fill="none">
      <path d="M5,0h8a5,5,0,0,1,5,5v8a5,5,0,0,1-5,5H5a5,5,0,0,1-5-5V5A5,5,0,0,1,5,0Z" stroke="none"/>
      <path d="M 5 3 C 3.897199630737305 3 3 3.897199630737305 3 5 L 3 13 C 3 14.1028003692627 3.897199630737305 15 5 15 L 13 15 C 14.1028003692627 15 15 14.1028003692627 15 13 L 15 5 C 15 3.897199630737305 14.1028003692627 3 13 3 L 5 3 M 5 0 L 13 0 C 15.76142024993896 0 18 2.238579750061035 18 5 L 18 13 C 18 15.76142024993896 15.76142024993896 18 13 18 L 5 18 C 2.238579750061035 18 0 15.76142024993896 0 13 L 0 5 C 0 2.238579750061035 2.238579750061035 0 5 0 Z" stroke="none" fill="#fff"/>
    </g>
    <line id="Line_50" data-name="Line 50" x2="10" transform="translate(75 238)" fill="none" stroke="#d6c69c" stroke-linecap="round" stroke-width="3"/>
    <line id="Line_51" data-name="Line 51" y2="10" transform="translate(80 233)" fill="none" stroke="#d6c69c" stroke-linecap="round" stroke-width="3"/>
  </g>
</svg>
