<svg xmlns="http://www.w3.org/2000/svg" height="24" viewBox="0 96 960 960" width="24"><path d="M232 884q-26 0-43-17t-17-43V328q0-26 17-43t43-17h194q-10-30 7-55t47-25q30 0 47 25t7 55h194q26 0 43 17t17 43v496q0 26-17 43t-43 17H232Zm248-608q13 0 21.5-8.5T510 246q0-13-8.5-21.5T480 216q-13 0-21.5 8.5T450 246q0 13 8.5 21.5T480 276ZM200 830q54-53 125.5-83.5T480 716q83 0 154.5 30.5T760 830V328q0-12-10-22t-22-10H232q-12 0-22 10t-10 22v502Zm280-210q48 0 81-33t33-81q0-48-33-81t-81-33q-48 0-81 33t-33 81q0 48 33 81t81 33ZM222 856h516v-6q-56-54-121.5-80T480 744q-69 0-135 25.5T222 848v8Zm258-264q-35 0-60.5-25.5T394 506q0-35 25.5-60.5T480 420q35 0 60.5 25.5T566 506q0 35-25.5 60.5T480 592Zm0-29Z"/></svg>