<svg xmlns="http://www.w3.org/2000/svg" height="24" viewBox="0 96 960 960" width="24"><path d="M224.615 896q-26.846 0-45.731-18.884Q160 858.231 160 831.385v-510.77q0-26.846 18.884-45.731Q197.769 256 224.615 256h188q-5.461-30.616 14.654-55.308Q447.385 176 480 176q33.385 0 53.5 24.692 20.116 24.692 13.885 55.308h188q26.846 0 45.731 18.884Q800 293.769 800 320.615v510.77q0 26.846-18.884 45.731Q762.231 896 735.385 896h-510.77Zm0-40h510.77q9.23 0 16.923-7.692Q760 840.615 760 831.385v-510.77q0-9.23-7.692-16.923Q744.615 296 735.385 296h-510.77q-9.23 0-16.923 7.692Q200 311.385 200 320.615v510.77q0 9.23 7.692 16.923Q215.385 856 224.615 856ZM300 746.769h240v-40H300v40ZM300 596h360v-40H300v40Zm0-150.769h360v-40H300v40Zm180-171.539q13 0 21.5-8.5t8.5-21.5q0-13-8.5-21.5t-21.5-8.5q-13 0-21.5 8.5t-8.5 21.5q0 13 8.5 21.5t21.5 8.5ZM200 856V296v560Z"/></svg>