<svg xmlns="http://www.w3.org/2000/svg" width="32.619" height="22.41" viewBox="0 0 32.619 22.41">
  <g id="CommunicationOutlined" transform="translate(-241.69 -596.734)">
    <g id="Group_138" data-name="Group 138" transform="translate(4.634 3)">
      <g id="Subtraction_4" data-name="Subtraction 4" transform="translate(5157.047 9056.145)" fill="#003a5d">
        <path d="M -4910.10595703125 -8441 L -4918.8935546875 -8441 C -4918.69580078125 -8442.27734375 -4918.21875 -8443.4404296875 -4917.5107421875 -8444.3466796875 C -4916.67724609375 -8445.4130859375 -4915.6083984375 -8446 -4914.5009765625 -8446 C -4913.39208984375 -8446 -4912.3232421875 -8445.416015625 -4911.49072265625 -8444.35546875 C -4910.78125 -8443.4501953125 -4910.3037109375 -8442.2841796875 -4910.10595703125 -8441 Z" stroke="none"/>
        <path d="M -4911.36767578125 -8442 C -4911.58349609375 -8442.6533203125 -4911.89013671875 -8443.244140625 -4912.27783203125 -8443.7373046875 C -4912.6474609375 -8444.208984375 -4913.42822265625 -8445 -4914.5009765625 -8445 C -4915.2939453125 -8445 -4916.0830078125 -8444.548828125 -4916.72265625 -8443.73046875 C -4917.10888671875 -8443.236328125 -4917.41455078125 -8442.6494140625 -4917.6298828125 -8442 L -4911.36767578125 -8442 M -4909.009765625 -8440 L -4919.990234375 -8440 C -4919.923828125 -8441.8896484375 -4919.32275390625 -8443.6513671875 -4918.298828125 -8444.9619140625 C -4917.271484375 -8446.2763671875 -4915.9228515625 -8447 -4914.5009765625 -8447 C -4911.5595703125 -8447 -4909.14794921875 -8443.92578125 -4909.009765625 -8440.0009765625 L -4909.009765625 -8440 Z" stroke="none" fill="#003a5d"/>
      </g>
      <g id="Ellipse_51" data-name="Ellipse 51" transform="translate(240.769 603.145)" fill="#003a5d" stroke="#003a5d" stroke-width="1">
        <circle cx="3" cy="3" r="3" stroke="none"/>
        <circle cx="3" cy="3" r="2.5" fill="none"/>
      </g>
    </g>
    <g id="Group_139" data-name="Group 139" transform="translate(26.28 3)">
      <g id="Subtraction_4-2" data-name="Subtraction 4" transform="translate(248.029 616.145) rotate(180)" fill="#003a5d">
        <path d="M 5.485348224639893 6 C 4.379018306732178 6 3.311208009719849 5.412769794464111 2.478608131408691 4.346469879150391 C 1.770907878875732 3.440239191055298 1.294336676597595 2.277499914169312 1.096736669540405 1 L 9.876507759094238 1 C 9.679059982299805 2.284695863723755 9.201677322387695 3.450690746307373 8.492487907409668 4.355319976806641 C 7.661037921905518 5.415909767150879 6.593078136444092 6 5.485348224639893 6 Z" stroke="none"/>
        <path d="M 2.360259056091309 2 C 2.575301170349121 2.649425983428955 2.881009101867676 3.237022638320923 3.26679801940918 3.731029987335205 C 3.905757904052734 4.54934024810791 4.693648338317871 5 5.485348224639893 5 C 6.556488037109375 5 7.336108207702637 4.209539890289307 7.705498218536377 3.738359928131104 C 8.092879295349121 3.24422025680542 8.399600982666016 2.653951644897461 8.61485481262207 2 L 2.360259056091309 2 M -1.9073486328125e-06 0 L 10.97265815734863 0.0009799003601074219 C 10.83446788787842 3.925780057907104 8.424808502197266 7 5.485348224639893 7 C 4.064448356628418 7 2.716797828674316 6.276370048522949 1.690427780151367 4.961910247802734 C 0.6669883728027344 3.651370048522949 0.06640815734863281 1.889649868011475 -1.9073486328125e-06 0 Z" stroke="none" fill="#003a5d"/>
      </g>
      <g id="Ellipse_51-2" data-name="Ellipse 51" transform="translate(238.324 603.145)" fill="#003a5d" stroke="#003a5d" stroke-width="1">
        <ellipse cx="2.998" cy="3" rx="2.998" ry="3" stroke="none"/>
        <ellipse cx="2.998" cy="3" rx="2.498" ry="2.5" fill="none"/>
      </g>
    </g>
    <g id="Group_140" data-name="Group 140" transform="translate(-3.69 0.734)">
      <g id="Path_91" data-name="Path 91" transform="translate(268 596)" fill="none">
        <path d="M0,0H10V7H6.357L4.46,8.41,3.625,7H0Z" stroke="none"/>
        <path d="M 1 0.9999980926513672 L 1 5.999998092651367 L 4.195040225982666 5.999998092651367 L 4.75465726852417 6.945120334625244 L 6.026200294494629 5.999998092651367 L 9 5.999998092651367 L 9 0.9999980926513672 L 1 0.9999980926513672 M 0 -1.9073486328125e-06 L 10 -1.9073486328125e-06 L 10 6.999998092651367 L 6.357140064239502 6.999998092651367 L 4.459959983825684 8.410158157348633 L 3.625 6.999998092651367 L 0 6.999998092651367 L 0 -1.9073486328125e-06 Z" stroke="none" fill="#003a5d"/>
      </g>
      <line id="Line_124" data-name="Line 124" x2="4" transform="translate(270.5 598.5)" fill="none" stroke="#003a5d" stroke-width="1"/>
      <line id="Line_125" data-name="Line 125" x2="3" transform="translate(272.5 600.5)" fill="none" stroke="#003a5d" stroke-width="1"/>
    </g>
    <g id="Group_141" data-name="Group 141" transform="translate(-26.31 0.734)">
      <g id="Path_91-2" data-name="Path 91" transform="translate(268 596)" fill="none">
        <path d="M10.835,0H0V7H3.947L6,8.41,6.908,7h3.928Z" stroke="none"/>
        <path d="M 1.000004768371582 0.9999980926513672 L 1.000004768371582 5.999998092651367 L 4.257214546203613 5.999998092651367 L 5.718117713928223 7.002139568328857 L 6.361064434051514 5.999998092651367 L 9.835444450378418 5.999998092651367 L 9.835444450378418 0.9999980926513672 L 1.000004768371582 0.9999980926513672 M 4.76837158203125e-06 -1.9073486328125e-06 L 10.83544445037842 -1.9073486328125e-06 L 10.83544445037842 6.999998092651367 L 6.907604694366455 6.999998092651367 L 6.002884387969971 8.410158157348633 L 3.947194576263428 6.999998092651367 L 4.76837158203125e-06 6.999998092651367 L 4.76837158203125e-06 -1.9073486328125e-06 Z" stroke="none" fill="#003a5d"/>
      </g>
      <line id="Line_124-2" data-name="Line 124" x1="4.334" transform="translate(271.792 598.5)" fill="none" stroke="#003a5d" stroke-width="1"/>
      <line id="Line_125-2" data-name="Line 125" x1="3.251" transform="translate(270.709 600.5)" fill="none" stroke="#003a5d" stroke-width="1"/>
    </g>
    <g id="Group_142" data-name="Group 142" transform="matrix(1, -0.017, 0.017, 1, 255.825, 603.903)">
      <path id="Path_93" data-name="Path 93" d="M0,0H3.34" transform="translate(1.004 3.776)" fill="none" stroke="#003a5d" stroke-linecap="square" stroke-width="1"/>
      <path id="Path_94" data-name="Path 94" d="M4.618,2.206,6.158,3.8,4.564,5.339" transform="translate(-1.211)" fill="none" stroke="#003a5d" stroke-linecap="round" stroke-width="1"/>
    </g>
    <g id="Group_143" data-name="Group 143" transform="matrix(1, -0.017, 0.017, 1, 254.767, 598.835)">
      <path id="Path_93-2" data-name="Path 93" d="M4.208,0H0" transform="translate(1.575 3.776)" fill="none" stroke="#003a5d" stroke-linecap="square" stroke-width="1"/>
      <path id="Path_94-2" data-name="Path 94" d="M6.022,2.206,4.564,3.8l1.51,1.539" transform="translate(-3.56)" fill="none" stroke="#003a5d" stroke-linecap="round" stroke-width="1"/>
    </g>
    <g id="Group_144" data-name="Group 144" transform="translate(26.28 3)">
      <g id="Subtraction_4-3" data-name="Subtraction 4" transform="translate(248.029 616.145) rotate(180)" fill="#003a5d">
        <path d="M 5.485348224639893 6 C 4.379018306732178 6 3.311208009719849 5.412769794464111 2.478608131408691 4.346469879150391 C 1.770907878875732 3.440239191055298 1.294336676597595 2.277499914169312 1.096736669540405 1 L 9.876507759094238 1 C 9.679059982299805 2.284695863723755 9.201677322387695 3.450690746307373 8.492487907409668 4.355319976806641 C 7.661037921905518 5.415909767150879 6.593078136444092 6 5.485348224639893 6 Z" stroke="none"/>
        <path d="M 2.360259056091309 2 C 2.575301170349121 2.649425983428955 2.881009101867676 3.237022638320923 3.26679801940918 3.731029987335205 C 3.905757904052734 4.54934024810791 4.693648338317871 5 5.485348224639893 5 C 6.556488037109375 5 7.336108207702637 4.209539890289307 7.705498218536377 3.738359928131104 C 8.092879295349121 3.24422025680542 8.399600982666016 2.653951644897461 8.61485481262207 2 L 2.360259056091309 2 M -1.9073486328125e-06 0 L 10.97265815734863 0.0009799003601074219 C 10.83446788787842 3.925780057907104 8.424808502197266 7 5.485348224639893 7 C 4.064448356628418 7 2.716797828674316 6.276370048522949 1.690427780151367 4.961910247802734 C 0.6669883728027344 3.651370048522949 0.06640815734863281 1.889649868011475 -1.9073486328125e-06 0 Z" stroke="none" fill="#003a5d"/>
      </g>
      <g id="Ellipse_51-3" data-name="Ellipse 51" transform="translate(238.324 603.145)" fill="#003a5d" stroke="#003a5d" stroke-width="1">
        <ellipse cx="2.998" cy="3" rx="2.998" ry="3" stroke="none"/>
        <ellipse cx="2.998" cy="3" rx="2.498" ry="2.5" fill="none"/>
      </g>
    </g>
  </g>
</svg>
