<svg xmlns="http://www.w3.org/2000/svg" width="36" height="29.913" viewBox="0 0 36 29.913">
  <g id="ContactOutlined" transform="translate(-282 -256)">
    <g id="Rectangle_274" data-name="Rectangle 274" transform="translate(282 256)" fill="none" stroke="#003a5d" stroke-width="2">
      <rect width="36" height="29.913" rx="5" stroke="none"/>
      <rect x="1" y="1" width="34" height="27.913" rx="4" fill="none"/>
    </g>
    <g id="Rectangle_279" data-name="Rectangle 279" transform="translate(288.268 262.415)" fill="#fff" stroke="#003a5d" stroke-width="1">
      <rect width="9" height="9" stroke="none"/>
      <rect x="0.5" y="0.5" width="8" height="8" fill="none"/>
    </g>
    <g id="Group_145" data-name="Group 145" transform="translate(52.443 -339.731)">
      <g id="Subtraction_4" data-name="Subtraction 4" transform="translate(243.646 610.951) rotate(180)" fill="#003a5d">
        <path d="M 3.294009447097778 3.203577995300293 C 2.755339622497559 3.203577995300293 2.225929498672485 2.905498027801514 1.80329954624176 2.364248037338257 C 1.506011843681335 1.983551383018494 1.283748269081116 1.516837477684021 1.148536801338196 0.9999980330467224 L 5.439223766326904 0.9999980330467224 C 5.102700710296631 2.279788732528687 4.253424167633057 3.203577995300293 3.294009447097778 3.203577995300293 Z" stroke="none"/>
        <path d="M 2.829543828964233 1.999998092651367 C 2.960727453231812 2.111036777496338 3.121744632720947 2.203577995300293 3.294009447097778 2.203577995300293 C 3.438877105712891 2.203577995300293 3.602495908737183 2.133255958557129 3.763593196868896 1.999998092651367 L 2.829543828964233 1.999998092651367 M -4.76837158203125e-07 -1.9073486328125e-06 L 6.589199542999268 0.0005879402160644531 C 6.506219387054443 2.357478141784668 5.059189796447754 4.203577995300293 3.294009447097778 4.203577995300293 C 2.440749645233154 4.203577995300293 1.6314697265625 3.769027948379517 1.015119552612305 2.979688167572021 C 0.4005393981933594 2.19268798828125 0.03987932205200195 1.134757995605469 -4.76837158203125e-07 -1.9073486328125e-06 Z" stroke="none" fill="#003a5d"/>
      </g>
      <g id="Ellipse_51" data-name="Ellipse 51" transform="translate(238.551 603.145)" fill="#003a5d" stroke="#003a5d" stroke-width="1">
        <ellipse cx="1.8" cy="1.802" rx="1.8" ry="1.802" stroke="none"/>
        <ellipse cx="1.8" cy="1.802" rx="1.3" ry="1.302" fill="none"/>
      </g>
    </g>
    <line id="Line_126" data-name="Line 126" x2="12" transform="translate(301 262.856)" fill="none" stroke="#003a5d" stroke-width="1"/>
    <line id="Line_127" data-name="Line 127" x2="12" transform="translate(301 266.856)" fill="none" stroke="#003a5d" stroke-width="1"/>
    <line id="Line_128" data-name="Line 128" x2="12" transform="translate(301 270.856)" fill="none" stroke="#003a5d" stroke-width="1"/>
    <line id="Line_129" data-name="Line 129" x2="22" transform="translate(290 275.856)" fill="none" stroke="#003a5d" stroke-width="1"/>
    <line id="Line_130" data-name="Line 130" x2="22" transform="translate(290 279.856)" fill="none" stroke="#003a5d" stroke-width="1"/>
  </g>
</svg>
