<svg xmlns="http://www.w3.org/2000/svg" width="35" height="36" viewBox="0 0 35 36">
  <g id="EventOutlined" transform="translate(-52 -405)">
    <g id="Rectangle_190" data-name="Rectangle 190" transform="translate(52 409)" fill="none" stroke="#003a5d" stroke-width="2">
      <rect width="35" height="32" rx="5" stroke="none"/>
      <rect x="1" y="1" width="33" height="30" rx="4" fill="none"/>
    </g>
    <path id="Path_82" data-name="Path 82" d="M19,0" transform="translate(62.5 415.5)" fill="none" stroke="#d6c69c" stroke-width="2"/>
    <line id="Line_106" data-name="Line 106" y2="3" transform="translate(79.138 406.322)" fill="none" stroke="#003a5d" stroke-linecap="round" stroke-width="2"/>
    <line id="Line_107" data-name="Line 107" y2="3" transform="translate(61.138 406)" fill="none" stroke="#003a5d" stroke-linecap="round" stroke-width="2"/>
    <line id="Line_108" data-name="Line 108" x2="33" transform="translate(53.138 416.322)" fill="none" stroke="#003a5d" stroke-width="2"/>
    <g id="Ellipse_30" data-name="Ellipse 30" transform="translate(59.638 420.822)" fill="#d6c69c" stroke="#d6c69c" stroke-width="1">
      <circle cx="1.5" cy="1.5" r="1.5" stroke="none"/>
      <circle cx="1.5" cy="1.5" r="1" fill="none"/>
    </g>
    <g id="Ellipse_53" data-name="Ellipse 53" transform="translate(68.638 420.822)" fill="#003a5d" stroke="#003a5d" stroke-width="1">
      <circle cx="1.5" cy="1.5" r="1.5" stroke="none"/>
      <circle cx="1.5" cy="1.5" r="1" fill="none"/>
    </g>
    <g id="Ellipse_56" data-name="Ellipse 56" transform="translate(77.638 420.822)" fill="#003a5d" stroke="#003a5d" stroke-width="1">
      <circle cx="1.5" cy="1.5" r="1.5" stroke="none"/>
      <circle cx="1.5" cy="1.5" r="1" fill="none"/>
    </g>
    <g id="Ellipse_34" data-name="Ellipse 34" transform="translate(59.638 426.822)" fill="#003a5d" stroke="#003a5d" stroke-width="1">
      <circle cx="1.5" cy="1.5" r="1.5" stroke="none"/>
      <circle cx="1.5" cy="1.5" r="1" fill="none"/>
    </g>
    <g id="Ellipse_54" data-name="Ellipse 54" transform="translate(68.638 426.822)" fill="#003a5d" stroke="#003a5d" stroke-width="1">
      <circle cx="1.5" cy="1.5" r="1.5" stroke="none"/>
      <circle cx="1.5" cy="1.5" r="1" fill="none"/>
    </g>
    <g id="Ellipse_57" data-name="Ellipse 57" transform="translate(77.638 426.822)" fill="#003a5d" stroke="#003a5d" stroke-width="1">
      <circle cx="1.5" cy="1.5" r="1.5" stroke="none"/>
      <circle cx="1.5" cy="1.5" r="1" fill="none"/>
    </g>
    <g id="Ellipse_52" data-name="Ellipse 52" transform="translate(59.638 432.822)" fill="#003a5d" stroke="#003a5d" stroke-width="1">
      <circle cx="1.5" cy="1.5" r="1.5" stroke="none"/>
      <circle cx="1.5" cy="1.5" r="1" fill="none"/>
    </g>
    <g id="Ellipse_55" data-name="Ellipse 55" transform="translate(68.638 432.822)" fill="#003a5d" stroke="#003a5d" stroke-width="1">
      <circle cx="1.5" cy="1.5" r="1.5" stroke="none"/>
      <circle cx="1.5" cy="1.5" r="1" fill="none"/>
    </g>
    <g id="Ellipse_58" data-name="Ellipse 58" transform="translate(77.638 432.822)" fill="#003a5d" stroke="#003a5d" stroke-width="1">
      <circle cx="1.5" cy="1.5" r="1.5" stroke="none"/>
      <circle cx="1.5" cy="1.5" r="1" fill="none"/>
    </g>
    <g id="Ellipse_59" data-name="Ellipse 59" transform="translate(66.638 424.822)" fill="none" stroke="#f66d6d" stroke-width="0.5">
      <circle cx="3.5" cy="3.5" r="3.5" stroke="none"/>
      <circle cx="3.5" cy="3.5" r="3.25" fill="none"/>
    </g>
  </g>
</svg>
