<svg xmlns="http://www.w3.org/2000/svg" width="43.557" height="36.916" viewBox="0 0 43.557 36.916">
  <g id="MailOutlined" transform="translate(-48.484 -348.742)">
    <path id="Path_44" data-name="Path 44" d="M5028.918,8818.681h-18.8a3.43,3.43,0,0,1-1.921-.73,3.285,3.285,0,0,1-.708-1.9v-21.031a4.965,4.965,0,0,1,.657-2.5,2.951,2.951,0,0,1,1.972-.921h32.468a4.485,4.485,0,0,1,1.972.921,3.766,3.766,0,0,1,.92,1.84v17.745" transform="translate(-4958.008 -8441.86)" fill="none" stroke="#003a5d" stroke-width="2"/>
    <path id="Path_40" data-name="Path 40" d="M0,0,13.027,4.169,25.548,0" transform="translate(55.704 358.833)" fill="none" stroke="#003a5d" stroke-linecap="round" stroke-width="2"/>
    <g id="Group_52" data-name="Group 52" transform="translate(90.627 373.944) rotate(90)">
      <line id="Line_63" data-name="Line 63" x2="8" transform="translate(0 4)" fill="none" stroke="#003a5d" stroke-linecap="square" stroke-width="3"/>
      <line id="Line_64" data-name="Line 64" x2="4" y2="4" transform="translate(6.3)" fill="none" stroke="#003a5d" stroke-linecap="square" stroke-width="2"/>
      <line id="Line_65" data-name="Line 65" y1="4" x2="4" transform="translate(6.3 4)" fill="none" stroke="#003a5d" stroke-linecap="square" stroke-width="2"/>
    </g>
    <g id="Group_53" data-name="Group 53" transform="translate(73.877 379.094) rotate(-90)">
      <line id="Line_63-2" data-name="Line 63" x2="8" transform="translate(0 4)" fill="none" stroke="#003a5d" stroke-linecap="square" stroke-width="3"/>
      <line id="Line_64-2" data-name="Line 64" x2="4" y2="4" transform="translate(5.697)" fill="none" stroke="#003a5d" stroke-linecap="square" stroke-width="2"/>
      <line id="Line_65-2" data-name="Line 65" y1="4" x2="4" transform="translate(5.697 4)" fill="none" stroke="#003a5d" stroke-linecap="square" stroke-width="2"/>
    </g>
  </g>
</svg>
