<svg xmlns="http://www.w3.org/2000/svg" height="24" viewBox="0 96 960 960" width="24"><path d="M400 551.385q-49.5 0-84.75-35.25T280 431.385q0-49.501 35.25-84.751 35.25-35.25 84.75-35.25t84.75 35.25Q520 381.884 520 431.385q0 49.5-35.25 84.75T400 551.385ZM120 840.616v-65.847q0-27.615 13.923-47.769t39.308-32.077q48.692-23.692 100.384-39Q325.308 640.615 400 640.615h9.385q3.692 0 8.923.462-4.154 10.308-6.577 20.192-2.423 9.885-4.654 19.346H400q-67.154 0-117.115 13.77-49.962 13.769-90.577 35.615-18.231 9.615-25.27 20.154Q160 760.692 160 774.769v25.846h252q2.923 9.462 7.154 20.347 4.231 10.884 9.308 19.654H120Zm528.461 19.231-5.846-46.154q-16.615-3.462-31.346-11.654-14.731-8.192-26.5-20.808l-43.384 17.231-16.924-28.769L561.231 742q-6.616-17.077-6.616-35.231 0-18.153 6.616-35.23l-36-29.231 16.923-28.77 42.615 18q11-12.615 26.116-20.423 15.115-7.807 31.73-11.269l5.846-46.154h33.847l5.077 46.154q16.615 3.462 31.731 11.385 15.115 7.923 26.115 20.769l42.615-18.462 16.924 29.231-36 29.231q6.615 16.859 6.615 35.122 0 18.263-6.615 34.878l36.769 27.693-16.923 28.769-43.385-17.231q-11.769 12.616-26.5 20.808t-31.346 11.654l-5.077 46.154h-33.847Zm16.223-80.77q29.855 0 51.047-21.26 21.192-21.261 21.192-51.116t-21.26-51.047q-21.261-21.192-51.116-21.192t-51.047 21.26q-21.192 21.26-21.192 51.116 0 29.855 21.26 51.047 21.261 21.192 51.116 21.192ZM400 511.385q33 0 56.5-23.5t23.5-56.5q0-33-23.5-56.5t-56.5-23.5q-33 0-56.5 23.5t-23.5 56.5q0 33 23.5 56.5t56.5 23.5Zm0-80Zm12 369.23Z"/></svg>