<svg xmlns="http://www.w3.org/2000/svg" height="24" viewBox="0 96 960 960" width="24"><path d="M432 892.615q44.231-77.923 111.538-107.269Q610.846 756 660 756q20.692 0 39.231 2.846 18.538 2.846 36.461 8.077Q762 732.769 781 683t19-107q0-134-93-227t-227-93q-134 0-227 93t-93 227q0 51.923 15.346 97.923T216.769 758q37.923-22.308 76.154-32.154Q331.154 716 373.077 716q25.077 0 48.808 3.961 23.731 3.962 38.884 8.347-11.461 7.384-20.807 14.923-9.347 7.538-18.885 17.077-7.385-2-21.269-3.154Q385.923 756 373.077 756q-34.332 0-68.128 8.539-33.795 8.538-62.795 25.615 37.385 42 86.5 67.731 49.115 25.73 103.346 34.73ZM480.134 936q-74.673 0-140.41-28.339-65.737-28.34-114.365-76.922-48.627-48.582-76.993-114.257Q120 650.806 120 576.134q0-74.673 28.339-140.41 28.34-65.737 76.922-114.365 48.582-48.627 114.257-76.993Q405.194 216 479.866 216q74.673 0 140.41 28.339 65.737 28.34 114.365 76.922 48.627 48.582 76.993 114.257Q840 501.194 840 575.866q0 74.673-28.339 140.41-28.34 65.737-76.922 114.365-48.582 48.627-114.257 76.993Q554.806 936 480.134 936ZM380 616q-50.308 0-85.154-34.846T260 496q0-50.308 34.846-85.154T380 376q50.308 0 85.154 34.846T500 496q0 50.308-34.846 85.154T380 616Zm0-40q32.692 0 56.346-23.654Q460 528.692 460 496q0-32.692-23.654-56.346Q412.692 416 380 416q-32.692 0-56.346 23.654Q300 463.308 300 496q0 32.692 23.654 56.346Q347.308 576 380 576Zm280 95.385q-40.062 0-67.723-27.662-27.662-27.661-27.662-67.723t27.662-67.723q27.661-27.662 67.723-27.662t67.723 27.662q27.662 27.661 27.662 67.723t-27.662 67.723Q700.062 671.385 660 671.385ZM480 576Z"/></svg>