<svg xmlns="http://www.w3.org/2000/svg" width="39.371" height="31.561" viewBox="0 0 39.371 31.561">
  <g id="RequestOutlined" transform="translate(-279.629 -255)">
    <g id="Rectangle_274" data-name="Rectangle 274" transform="translate(283 255)" fill="none" stroke="#003a5d" stroke-width="2">
      <rect width="36" height="28" rx="5" stroke="none"/>
      <rect x="1" y="1" width="34" height="26" rx="4" fill="none"/>
    </g>
    <path id="Path_80" data-name="Path 80" d="M5195.733,8706.363v21.666s.02.528.095,1.379a3.365,3.365,0,0,0,1.182,2.63,2.712,2.712,0,0,0,1.475.569,25.731,25.731,0,0,0,3.195.156h30.794" transform="translate(-4915.104 -8447.207)" fill="none" stroke="#003a5d" stroke-linecap="round" stroke-linejoin="round" stroke-width="2"/>
    <path id="Path_81" data-name="Path 81" d="M5213.506,8710.228a4.564,4.564,0,0,1,1.789-2.405,4.692,4.692,0,0,1,3.538-.579,3.608,3.608,0,0,1,2.373,1.711,6.181,6.181,0,0,1,.538,2.268,7.343,7.343,0,0,1-.538,1.855c-.38.768-.533.817-1.488,1.3a8.436,8.436,0,0,0-1.859.907,2.968,2.968,0,0,0-1.239,1.943,9.847,9.847,0,0,0-.219,2.651v1.3" transform="matrix(0.999, 0.035, -0.035, 0.999, -4608.936, -8623.6)" fill="none" stroke="#003a5d" stroke-width="1"/>
    <g id="Ellipse_28" data-name="Ellipse 28" transform="translate(299 276.169)" fill="#fff" stroke="#003a5d" stroke-width="1">
      <circle cx="1" cy="1" r="1" stroke="none"/>
      <circle cx="1" cy="1" r="0.5" fill="none"/>
    </g>
  </g>
</svg>
