<svg xmlns="http://www.w3.org/2000/svg" width="50.175" height="37.122" viewBox="0 0 50.175 37.122">
  <g id="ResolutionOutlined" transform="translate(-223.513 -206.447)">
    <g id="Group_61" data-name="Group 61" transform="translate(236.927 -232.865) rotate(39)">
      <g id="Path_57" data-name="Path 57" transform="translate(287.738 338.49)" fill="#003a5d">
        <path d="M 5.570924282073975 8.322370529174805 C 5.169327259063721 8.310912132263184 5.090288639068604 8.243199348449707 5.086847305297852 8.240060806274414 C 5.025457382202148 8.14214038848877 5.086897373199463 7.641110420227051 5.131767272949219 7.275280475616455 C 5.196137428283691 6.750330448150635 5.276257514953613 6.097020626068115 5.276257514953613 5.261470794677734 C 5.276257514953613 4.380560398101807 5.186687469482422 3.747230529785156 5.121297359466553 3.28480052947998 C 5.093555927276611 3.088662624359131 5.062856197357178 2.871558666229248 5.061538696289062 2.75237250328064 C 5.144077777862549 2.735447883605957 5.309455871582031 2.718363046646118 5.640581607818604 2.716788768768311 C 6.125272750854492 2.814590454101562 9.610821723937988 3.470930576324463 15.82843780517578 3.470930576324463 C 17.58793830871582 3.470930576324463 19.80871772766113 3.041330575942993 21.95637702941895 2.625880718231201 C 23.16400718688965 2.392270565032959 24.30465698242188 2.171620607376099 25.3067569732666 2.037890672683716 C 26.39233779907227 1.893070578575134 27.43524742126465 1.819640636444092 28.4064769744873 1.819640636444092 C 30.02101707458496 1.819640636444092 30.88644790649414 2.025740623474121 30.89499664306641 2.027830600738525 L 30.95327758789062 2.042010545730591 L 31.01434707641602 2.042280673980713 C 32.69746780395508 2.042280673980713 33.90680694580078 2.159110546112061 34.13896560668945 3.670950651168823 L 34.13940811157227 3.673760652542114 L 34.13986587524414 3.676570653915405 C 34.17658615112305 3.898790597915649 34.23649597167969 4.96168041229248 34.23649597167969 5.514920711517334 C 34.23649597167969 6.346630573272705 33.93105697631836 6.912080764770508 33.30271911621094 7.24358081817627 C 32.76689910888672 7.526270389556885 32.16145706176758 7.548250675201416 31.98865699768066 7.548260688781738 C 31.95715713500977 7.548260688781738 31.9376277923584 7.547570705413818 31.93264770507812 7.547330379486084 L 31.90392684936523 7.546000480651855 L 31.87338829040527 7.547890663146973 C 31.86097717285156 7.548740386962891 30.6099967956543 7.633070468902588 28.67781829833984 7.63308048248291 C 27.53937721252441 7.63308048248291 26.39142799377441 7.604240417480469 25.2658576965332 7.547350406646729 C 23.40220832824707 7.453150749206543 21.84688758850098 7.171170711517334 20.34277725219727 6.898480415344238 C 18.80798721313477 6.62022066116333 17.35830688476562 6.357390403747559 15.82843780517578 6.357390403747559 C 9.773984909057617 6.357390403747559 6.264445781707764 7.970415592193604 5.570924282073975 8.322370529174805 Z" stroke="none"/>
        <path d="M 28.40648651123047 2.319640636444092 C 27.45719718933105 2.319650650024414 26.43652725219727 2.391600608825684 25.37289810180664 2.533490657806396 C 24.38527679443359 2.665290832519531 23.2515869140625 2.884600639343262 22.05133819580078 3.116780757904053 C 19.88054656982422 3.536710739135742 17.63585662841797 3.970930576324463 15.82843780517578 3.970930576324463 C 9.830968856811523 3.970930576324463 6.337421417236328 3.361185550689697 5.617359161376953 3.221808433532715 C 5.681034088134766 3.672058582305908 5.776256561279297 4.350133419036865 5.776256561279297 5.261470794677734 C 5.776256561279297 6.127570629119873 5.690597534179688 6.826090812683105 5.628047943115234 7.336140632629395 C 5.611141204833984 7.474007606506348 5.592277526855469 7.627838134765625 5.578964233398438 7.763283252716064 C 6.683752059936523 7.24766731262207 10.18617630004883 5.857390403747559 15.82843780517578 5.857390403747559 C 17.40326690673828 5.857390403747559 18.87442779541016 6.124110698699951 20.43197822570801 6.406500816345215 C 21.92047691345215 6.676360607147217 23.45966720581055 6.95542049407959 25.29109764099121 7.047980308532715 C 26.40826797485352 7.104450702667236 27.54772758483887 7.13308048248291 28.67781829833984 7.13308048248291 C 30.58959770202637 7.13308048248291 31.82691764831543 7.049900531768799 31.83899688720703 7.049070358276367 L 31.89263725280762 7.043490409851074 L 31.95777702331543 7.047911643981934 C 31.96427536010742 7.048089027404785 31.97473526000977 7.048250675201416 31.98866653442383 7.048250675201416 C 32.09098815917969 7.048250675201416 32.62398910522461 7.036350250244141 33.06940841674805 6.801350593566895 C 33.37998962402344 6.637500762939453 33.73649597167969 6.343190670013428 33.73649597167969 5.514920711517334 C 33.73649597167969 4.964040756225586 33.67702865600586 3.947710514068604 33.64655685424805 3.758090496063232 L 33.64476776123047 3.746840476989746 C 33.48773956298828 2.724270820617676 32.81904602050781 2.542280673980713 31.01434707641602 2.542280673980713 L 30.89649772644043 2.543360710144043 L 30.77784729003906 2.51391077041626 C 30.76970672607422 2.511970520019531 29.94564819335938 2.31963062286377 28.40648651123047 2.319640636444092 M 28.40647888183594 1.319644927978516 C 30.11731719970703 1.319631576538086 31.01434707641602 1.542280197143555 31.01434707641602 1.542280197143555 C 32.43564605712891 1.542280197143555 34.31894683837891 1.548800468444824 34.6331787109375 3.5950608253479 C 34.67724609375 3.861770629882812 34.73649597167969 4.962270736694336 34.73649597167969 5.514920711517334 C 34.73649597167969 8.197680473327637 31.90767860412598 8.046711921691895 31.90767669677734 8.046710968017578 C 31.90767669677734 8.046710968017578 29.08520698547363 8.241040229797363 25.2406177520752 8.046710968017578 C 21.39602661132812 7.852390289306641 18.75798797607422 6.857390403747559 15.82843780517578 6.857390403747559 C 9.230337142944336 6.857390403747559 5.691005706787109 8.824010848999023 5.691005706787109 8.824010848999023 C 3.900959014892578 8.824010848999023 4.776256561279297 7.944230556488037 4.776256561279297 5.261470794677734 C 4.776256561279297 2.578700542449951 3.900959014892578 2.216670513153076 5.691005706787109 2.216670513153076 C 5.691005706787109 2.216670513153076 9.230337142944336 2.970930576324463 15.82843780517578 2.970930576324463 C 18.51385688781738 2.970930576324463 22.43733787536621 1.916390419006348 25.2406177520752 1.542280197143555 C 26.49226760864258 1.375313758850098 27.55113983154297 1.31965160369873 28.40647888183594 1.319644927978516 Z" stroke="none" fill="#003a5d"/>
      </g>
      <g id="Path_58" data-name="Path 58" transform="translate(285.691 336.374)" fill="#003a5d">
        <path d="M 8.875605583190918 13.87484169006348 L 0.7532647848129272 13.87484169006348 C 1.225210547447205 12.67332172393799 2.082818269729614 10.116623878479 2.082818269729614 7.403841495513916 C 2.082818269729614 4.630486488342285 1.185899496078491 1.78031325340271 0.7254926562309265 0.5000013113021851 L 8.908818244934082 0.5000013113021851 C 8.36916446685791 1.795325517654419 7.336118221282959 4.636448383331299 7.336118221282959 7.403841495513916 C 7.336118221282959 10.10995101928711 8.322892189025879 12.65923500061035 8.875605583190918 13.87484169006348 Z" stroke="none"/>
        <path d="M 1.425309181213379 1.000000953674316 C 1.91426420211792 2.490673065185547 2.582818031311035 4.973319053649902 2.582818031311035 7.403841495513916 C 2.582818031311035 9.753471374511719 1.958899021148682 11.98798179626465 1.471600532531738 13.37484169006348 L 8.117827415466309 13.37484169006348 C 7.550574779510498 11.9756031036377 6.836118221282959 9.747893333435059 6.836118221282959 7.403841495513916 C 6.836118221282959 4.978005409240723 7.60282039642334 2.504056930541992 8.172849655151367 1.000000953674316 L 1.425309181213379 1.000000953674316 M -1.9073486328125e-06 9.5367431640625e-07 L 9.676438331604004 9.5367431640625e-07 C 9.676438331604004 9.5367431640625e-07 7.836118221282959 3.810131072998047 7.836118221282959 7.403841495513916 C 7.836118221282959 10.99755096435547 9.676438331604004 14.37484169006348 9.676438331604004 14.37484169006348 L -1.9073486328125e-06 14.37484169006348 C -1.9073486328125e-06 14.37484169006348 1.582818031311035 10.99755096435547 1.582818031311035 7.403841495513916 C 1.582818031311035 3.810131072998047 -1.9073486328125e-06 9.5367431640625e-07 -1.9073486328125e-06 9.5367431640625e-07 Z" stroke="none" fill="#003a5d"/>
      </g>
      <g id="Rectangle_193" data-name="Rectangle 193" transform="translate(285 351.155)" fill="#003a5d" stroke="#003a5d" stroke-width="0.5">
        <rect width="11.059" height="1.388" stroke="none"/>
        <rect x="0.25" y="0.25" width="10.559" height="0.888" fill="none"/>
      </g>
      <g id="Rectangle_194" data-name="Rectangle 194" transform="translate(285 334.5)" fill="#003a5d" stroke="#003a5d" stroke-width="0.5">
        <rect width="11.059" height="1.388" stroke="none"/>
        <rect x="0.25" y="0.25" width="10.559" height="0.888" fill="none"/>
      </g>
    </g>
    <g id="Rectangle_195" data-name="Rectangle 195" transform="translate(226 239.568)" fill="#003a5d" stroke="#003a5d" stroke-width="1">
      <path d="M4,0H22a4,4,0,0,1,4,4V4a0,0,0,0,1,0,0H0A0,0,0,0,1,0,4V4A4,4,0,0,1,4,0Z" stroke="none"/>
      <path d="M3.5.5h19a3,3,0,0,1,3,3v0a0,0,0,0,1,0,0H.5a0,0,0,0,1,0,0v0A3,3,0,0,1,3.5.5Z" fill="none"/>
    </g>
    <path id="Path_59" data-name="Path 59" d="M0-.082A48.873,48.873,0,0,1,7.423-.714a58.512,58.512,0,0,1,7.84.632V1.624H9.853L8.361,2.756,0,4.623Z" transform="translate(230.75 236.945)" fill="#003a5d"/>
    <line id="Line_83" data-name="Line 83" x2="3" y2="2" transform="translate(230.852 224.81)" fill="none" stroke="#003a5d" stroke-linecap="round" stroke-width="2"/>
    <line id="Line_85" data-name="Line 85" x2="5" y2="1" transform="translate(226 232.713)" fill="none" stroke="#003a5d" stroke-linecap="round" stroke-width="2"/>
    <line id="Line_84" data-name="Line 84" x2="6.898" y2="3.385" transform="translate(224.852 226.81)" fill="none" stroke="#003a5d" stroke-linecap="round" stroke-width="2"/>
  </g>
</svg>
