<svg xmlns="http://www.w3.org/2000/svg" width="44.978" height="43.003" viewBox="0 0 44.978 43.003">
  <g id="StarOutline" transform="translate(7775.168 8247.059)" fill="none">
    <path d="M-7753.022-8214.033l-.235-.178-.994.587-14.765,8.886,6.017-15.585-10.712-9.294-1.456-1.1h.192l-.153-.132s9.062-.1,16.229-.19h0l6.807-16.022,5.284,16.015.484.008h16.134l-12.714,10.713-.34.2,4.44,16.067Z" stroke="none"/>
    <path d="M -7742.216796875 -8208.8935546875 L -7745.58154296875 -8221.0693359375 L -7744.064453125 -8221.9619140625 L -7735.66796875 -8229.0361328125 L -7746.35888671875 -8229.0361328125 C -7746.3603515625 -8229.0361328125 -7746.52685546875 -8229.0390625 -7746.83935546875 -8229.0439453125 L -7748.26220703125 -8229.06640625 L -7752.328125 -8241.3896484375 L -7757.57666015625 -8229.0361328125 L -7758.88623046875 -8229.0361328125 C -7762.5029296875 -8228.98828125 -7766.62939453125 -8228.9404296875 -7769.8154296875 -8228.904296875 L -7769.59521484375 -8228.7138671875 L -7769.619140625 -8228.7138671875 L -7760.62841796875 -8220.9130859375 L -7765.05029296875 -8209.4599609375 L -7755.26806640625 -8215.3466796875 L -7753.12060546875 -8216.6142578125 L -7751.8447265625 -8215.650390625 L -7742.216796875 -8208.8935546875 M -7738.8046875 -8204.0556640625 L -7753.02197265625 -8214.033203125 L -7753.25732421875 -8214.2109375 L -7754.25146484375 -8213.6240234375 L -7769.0166015625 -8204.73828125 L -7763 -8220.3232421875 L -7773.7119140625 -8229.6171875 L -7775.16796875 -8230.7138671875 L -7774.97607421875 -8230.7138671875 L -7775.12890625 -8230.845703125 C -7775.12890625 -8230.845703125 -7766.0673828125 -8230.94140625 -7758.89990234375 -8231.0361328125 L -7758.8994140625 -8231.0361328125 L -7752.0927734375 -8247.05859375 L -7746.80859375 -8231.0439453125 C -7746.4921875 -8231.0390625 -7746.32421875 -8231.0361328125 -7746.32421875 -8231.0361328125 L -7730.1904296875 -8231.0361328125 L -7742.90478515625 -8220.3232421875 L -7743.2451171875 -8220.123046875 L -7738.8046875 -8204.0556640625 Z" stroke="none" fill="#8c88af"/>
  </g>
</svg>
