<svg xmlns="http://www.w3.org/2000/svg" height="24" viewBox="0 96 960 960" width="24"><path d="M123 824v-52q0-26 13.5-43.5t36.445-28.587Q222 677 269.5 662.5 317 648 391 648t121.5 14.5q47.5 14.5 96.555 37.413Q632 711 645.5 728.5T659 772v52H123Zm616 0v-52q0-32-10.947-59.982T697 664q23 6 45 15.5t45 20.5q23 11 36.5 30.16Q837 749.321 837 772v52h-98ZM391 544q-44.55 0-76.275-31.725Q283 480.55 283 436q0-44.55 31.725-76.275Q346.45 328 391 328q44.55 0 76.275 31.725Q499 391.45 499 436q0 44.55-31.725 76.275Q435.55 544 391 544Zm258-108q0 44.55-31.725 76.275Q585.55 544 541 544q18.321-22.763 28.161-50.505Q579 465.753 579 435.876 579 406 568.5 379 558 352 541 328q44.55 0 76.275 31.725Q649 391.45 649 436ZM151 796h480v-24q0-15-7.5-26T595 724q-42-23-90-35.5T391 676q-66 0-114 12.5T187 724q-21 11-28.5 22t-7.5 26v24Zm240-280q33 0 56.5-23.5T471 436q0-33-23.5-56.5T391 356q-33 0-56.5 23.5T311 436q0 33 23.5 56.5T391 516Zm0 280Zm0-360Z"/></svg>