<svg xmlns="http://www.w3.org/2000/svg" height="24" viewBox="0 96 960 960" width="24"><path d="M766.616 956.923 630 820.308v20.308H70v-65.847Q70 750 84.423 728.423q14.423-21.577 38.808-33.5 56.615-27.154 113.307-40.731Q293.231 640.615 350 640.615q29.154 0 58.192 3.962 29.039 3.961 58.731 12.654L360.308 550.616q-2 .769-4.769.769H350q-49.5 0-84.75-35.25T230 431.385v-5.539q0-2.769.769-4.769L89.077 279.385l28.538-28.539 677.539 677.539-28.538 28.538ZM730 636V516H610v-40h120V356h40v120h120v40H770v120h-40ZM460.154 479.385l-31.692-31.693q.769-4.077 1.153-8.154.385-4.077.385-8.153 0-33-23.5-56.5t-56.5-23.5q-4.077 0-8.154.384-4.077.385-8.154 1.154L302 321.23q11.154-4.923 23.32-7.384 12.166-2.462 24.68-2.462 49.5 0 84.75 35.25T470 431.385q0 12.513-2.461 24.68-2.462 12.166-7.385 23.32ZM110 800.615h480l-64.462-84.769q-41.846-17.615-86.23-26.423-44.385-8.808-89.308-8.808-53.405 0-105.856 12.731Q191.692 706.077 142.308 730q-15.154 8.077-23.731 19.769-8.577 11.693-8.577 25v25.846Zm318.462-352.923ZM350 800.615Z"/></svg>