<svg xmlns="http://www.w3.org/2000/svg" height="24" viewBox="0 96 960 960" width="24"><path d="M730 636V516H610v-40h120V356h40v120h120v40H770v120h-40Zm-370-84.615q-49.5 0-84.75-35.25T240 431.385q0-49.501 35.25-84.751 35.25-35.25 84.75-35.25t84.75 35.25Q480 381.884 480 431.385q0 49.5-35.25 84.75T360 551.385ZM80 840.616v-65.847Q80 750 94.423 728.423q14.423-21.577 38.808-33.5 56.615-27.154 113.307-40.731Q303.231 640.615 360 640.615q56.769 0 113.462 13.577 56.692 13.577 113.307 40.731 24.385 11.923 38.808 33.5Q640 750 640 774.769v65.847H80Zm40-40.001h480v-25.846q0-13.307-8.577-25-8.577-11.692-23.731-19.769-49.384-23.923-101.836-36.654Q413.405 680.615 360 680.615q-53.405 0-105.856 12.731Q201.692 706.077 152.308 730q-15.154 8.077-23.731 19.769-8.577 11.693-8.577 25v25.846Zm240-289.23q33 0 56.5-23.5t23.5-56.5q0-33-23.5-56.5t-56.5-23.5q-33 0-56.5 23.5t-23.5 56.5q0 33 23.5 56.5t56.5 23.5Zm0-80Zm0 369.23Z"/></svg>