<svg xmlns="http://www.w3.org/2000/svg" height="24" viewBox="0 96 960 960" width="24"><path d="M141.731 843.846V298.885q0-25.385 17.896-43.462 17.897-18.077 43.642-18.077h473.846q25.385 0 43.462 18.077t18.077 43.462v197.307q-4.885-.461-9.644-.327-4.76.135-9.135.135-4.567 0-9.01-.135-4.442-.134-9.134.327V298.885q0-10.385-7.116-17.5-7.115-7.116-17.5-7.116H203.269q-10.769 0-17.692 7.116-6.923 7.115-6.923 17.5v418.461h302.038q-.479 4.76-.599 9.519-.119 4.76-.119 9.135 0 4.567.119 9.135.12 4.567.599 9.134H230.923l-89.192 89.577Zm144.615-409.577h307.692v-36.923H286.346v36.923Zm0 160h187.692v-36.923H286.346v36.923Zm415.385 280v-120h-120v-36.923h120v-120h36.923v120h120v36.923h-120v120h-36.923ZM178.654 717.346V274.269v443.077Z"/></svg>