<svg xmlns="http://www.w3.org/2000/svg" height="20" viewBox="0 96 960 960" width="20"><path d="M742.808 419.846v-78.384h-78.385v-40.924h78.385v-79.384h40.923v79.384h79.385v40.924h-79.385v78.384h-40.923ZM141.577 930.462q-27.996 0-46.767-18.976-18.772-18.975-18.772-46.387V445.286q0-27.412 18.772-46.388 18.771-18.975 46.767-18.975h113.308l72.769-79.385h237.077v40.924h-219l-74.039 79.384H141.577q-10.769 0-17.692 6.923t-6.923 17.692v419.462q0 10.769 6.923 17.692t17.692 6.923h576.616q11.384 0 17.999-6.923 6.616-6.923 6.616-17.692V519.539h40.923v345.384q0 27.65-18.975 46.595-18.976 18.944-46.386 18.944H141.577Zm287.808-129.423q62.577 0 104.808-41.943 42.23-41.942 42.23-104.596 0-62.077-42.23-104.308-42.231-42.231-105.001-42.231-62.769 0-104.307 42.231-41.539 42.231-41.539 104.5 0 62.27 41.442 104.308 41.443 42.039 104.597 42.039Zm-.193-40.924q-45.923 0-75.423-30.102t-29.5-75.696q0-45.048 29.42-75.24 29.419-30.192 75.696-30.192 45.73 0 75.923 30.375 30.192 30.375 30.192 75.615 0 45.24-30.192 75.24-30.193 30-76.116 30Zm.693-105.615Z"/></svg>