<svg xmlns="http://www.w3.org/2000/svg" width="22.934" height="21.05" viewBox="0 0 22.934 21.05">
  <path id="alarm_FILL0_wght200_GRAD0_opsz24" d="M108.544,254.127a9.349,9.349,0,0,1-3.735-.75,9.606,9.606,0,0,1-5.1-5.1,9.679,9.679,0,0,1,0-7.47,9.605,9.605,0,0,1,5.1-5.1,9.678,9.678,0,0,1,7.47,0,9.606,9.606,0,0,1,5.1,5.1,9.679,9.679,0,0,1,0,7.47,9.606,9.606,0,0,1-5.1,5.1A9.349,9.349,0,0,1,108.544,254.127ZM108.544,244.544Zm3.769,4.616.848-.848-4.017-4.017v-5.74h-1.2v6.238Zm-11.066-16.083.848.848-4.169,4.169-.848-.848Zm14.6,0,4.169,4.169-.848.848-4.169-4.169Zm-7.3,19.852a8.372,8.372,0,1,0-5.933-2.452A8.081,8.081,0,0,0,108.544,252.929Z" transform="translate(-97.077 -233.077)" fill="#f66d6d"/>
</svg>
