<svg xmlns="http://www.w3.org/2000/svg" width="23.525" height="23.525" viewBox="0 0 23.525 23.525">
  <path id="circle_notifications_FILL0_wght200_GRAD0_opsz24" d="M131.762,235.453a1.564,1.564,0,0,0,1.112-.446,1.754,1.754,0,0,0,.547-1.112H130.1a1.754,1.754,0,0,0,.547,1.112A1.564,1.564,0,0,0,131.762,235.453Zm-5.529-3.569h11.059v-1.609h-1.307v-3.549a5.465,5.465,0,0,0-.878-3.027,3.818,3.818,0,0,0-2.439-1.718v-1.056a.973.973,0,0,0-.25-.68.918.918,0,0,0-1.309,0,.973.973,0,0,0-.25.68v1.056a3.843,3.843,0,0,0-2.439,1.693,5.344,5.344,0,0,0-.878,3v3.6h-1.307Zm2.915-1.609v-4.122a2.614,2.614,0,0,1,5.228,0v4.122Zm2.618,9.249a11.464,11.464,0,0,1-4.588-.926,11.745,11.745,0,0,1-6.252-6.246,11.818,11.818,0,0,1,0-9.173,11.745,11.745,0,0,1,6.246-6.252,11.818,11.818,0,0,1,9.173,0,11.745,11.745,0,0,1,6.252,6.246,11.818,11.818,0,0,1,0,9.173,11.745,11.745,0,0,1-6.246,6.252A11.44,11.44,0,0,1,131.767,239.525Zm0-1.307a10.376,10.376,0,1,0-7.417-3.039A10.091,10.091,0,0,0,131.762,238.218ZM131.762,227.762Z" transform="translate(-120 -216)" fill="#ffa114"/>
</svg>
