<svg xmlns="http://www.w3.org/2000/svg" width="17.999" height="17.955" viewBox="0 0 17.999 17.955">
  <path id="call_FILL0_wght200_GRAD0_opsz24" d="M178.35-782.045a13.214,13.214,0,0,1-5.955-1.505,20.773,20.773,0,0,1-5.415-3.915,21.049,21.049,0,0,1-3.926-5.4,13.072,13.072,0,0,1-1.516-5.944,1.15,1.15,0,0,1,.339-.848,1.15,1.15,0,0,1,.848-.339h2.8a1.246,1.246,0,0,1,.826.287,1.3,1.3,0,0,1,.443.748l.561,2.7a1.862,1.862,0,0,1-.014.8,1.18,1.18,0,0,1-.39.612l-2.459,2.313a21.705,21.705,0,0,0,3.405,4.4,20.891,20.891,0,0,0,4.453,3.319l2.4-2.482a1.552,1.552,0,0,1,.642-.4,1.5,1.5,0,0,1,.74-.027l2.378.487a1.345,1.345,0,0,1,.748.447,1.234,1.234,0,0,1,.287.823v2.752a1.15,1.15,0,0,1-.339.848A1.15,1.15,0,0,1,178.35-782.045Zm-14.414-11.564,2.169-2a.4.4,0,0,0,.141-.239.529.529,0,0,0-.011-.283l-.5-2.4a.466.466,0,0,0-.152-.261.439.439,0,0,0-.283-.087h-2.319a.3.3,0,0,0-.217.087.3.3,0,0,0-.087.217,10.737,10.737,0,0,0,.363,2.419A16.607,16.607,0,0,0,163.936-793.609Zm9.464,9.291a10.184,10.184,0,0,0,2.442.839,12.465,12.465,0,0,0,2.26.291.3.3,0,0,0,.217-.087.3.3,0,0,0,.087-.217v-2.269a.438.438,0,0,0-.087-.283.466.466,0,0,0-.261-.152l-2.091-.428a.358.358,0,0,0-.228-.011.554.554,0,0,0-.207.141l-2.132,2.176ZM163.936-793.609ZM173.4-784.319Z" transform="translate(-161.538 800)" fill="#6f6af8"/>
</svg>
