<svg xmlns="http://www.w3.org/2000/svg"  viewBox="0 -960 960 960" fill="#dc3545"><path d="M334.615-311.641 480-457.026l145.385 145.385 22.974-22.974L502.974-480l145.385-145.385-22.974-22.974L480-502.974 334.615-648.359l-22.974 22.974L457.026-480 311.641-334.615l22.974 22.974ZM480.226-122.82q-73.953 0-139.033-28.22-65.08-28.219-113.585-76.69-48.504-48.472-76.646-113.322-28.142-64.85-28.142-138.722 0-74.107 28.22-139.443 28.219-65.337 76.69-113.675 48.472-48.338 113.322-76.313t138.722-27.975q74.107 0 139.447 28.132 65.341 28.131 113.675 76.357t76.309 113.333q27.975 65.107 27.975 139.132 0 73.953-28.053 139.033-28.053 65.08-76.357 113.585-48.305 48.504-113.412 76.646-65.107 28.142-139.132 28.142Zm-.273-32.436q135.239 0 230.015-94.805 94.776-94.806 94.776-229.892 0-135.239-94.728-230.015-94.729-94.776-229.969-94.776-135.086 0-229.938 94.728-94.853 94.729-94.853 229.969 0 135.086 94.805 229.938 94.806 94.853 229.892 94.853ZM480-480Z"/></svg>