<svg version="1.1" id="Layer_1" xmlns="http://www.w3.org/2000/svg" xmlns:xlink="http://www.w3.org/1999/xlink" x="0px" y="0px"
	 width="100%" viewBox="0 0 491 508" enable-background="new 0 0 491 508" xml:space="preserve">
<path fill="#070707" opacity="1.000000" stroke="none" 
	d="
M492.000000,214.000000 
	C492.000000,235.354233 492.000000,256.708466 491.664246,278.684967 
	C490.546173,282.291290 489.481384,285.232971 489.026672,288.266113 
	C485.644135,310.830780 478.293274,332.243439 468.100952,352.420349 
	C460.674835,367.121246 451.236084,380.864929 442.007446,394.572693 
	C436.771240,402.350311 430.688721,409.734283 424.055542,416.363037 
	C401.827240,438.576324 376.938110,456.960724 347.898560,469.751678 
	C330.805695,477.280548 313.386322,483.050049 295.110718,486.574646 
	C273.988129,490.648315 252.862564,492.928955 231.222458,491.228027 
	C210.046692,489.563629 189.571228,485.167297 169.532043,478.566895 
	C165.836334,477.349609 163.372437,477.791962 160.312897,479.434601 
	C147.629730,486.244110 134.789154,492.763397 122.167274,499.682709 
	C117.226959,502.391022 112.709854,505.871307 108.000000,509.000000 
	C103.643097,509.000000 99.286201,509.000000 94.357460,508.679871 
	C90.265083,505.165741 85.587402,502.761322 85.988968,496.442444 
	C86.006569,475.594574 86.029205,455.208832 85.952675,434.823486 
	C85.946594,433.202850 85.253960,431.584778 84.602722,429.791748 
	C76.345123,421.735809 67.877411,414.282318 60.491619,405.878021 
	C47.072556,390.608398 35.701111,373.807983 26.707523,355.533356 
	C14.273070,330.266968 6.210077,303.659149 2.921352,275.638702 
	C2.772231,274.368134 1.662377,273.210327 1.000000,272.000000 
	C1.000000,181.739761 1.000000,91.479530 1.000000,1.000000 
	C90.687439,1.000000 180.375061,1.000000 270.604431,1.241040 
	C271.764099,1.321387 272.382050,1.160693 273.000000,1.000000 
	C273.750000,1.000000 274.500000,1.000000 275.768250,1.332665 
	C278.248901,2.413442 280.158417,3.597192 282.181824,3.842838 
	C304.466705,6.548268 325.770294,12.947020 346.102783,22.119558 
	C380.926605,37.829483 410.900543,60.118671 435.402130,89.710052 
	C463.952942,124.191872 482.185333,163.238953 489.268036,207.485123 
	C489.629700,209.744614 491.064728,211.832321 492.000000,214.000000 
M115.882439,468.942017 
	C127.268471,463.115112 138.841827,457.620056 149.970825,451.337830 
	C156.732803,447.520782 163.231949,445.566956 170.759048,448.317322 
	C175.919434,450.202942 181.101822,452.094116 186.396149,453.535553 
	C205.975021,458.866241 225.878967,463.259247 246.188782,462.734589 
	C263.374329,462.290649 280.550354,460.445923 297.460968,456.296082 
	C323.013733,450.025543 346.506561,439.320557 368.287476,424.908051 
	C384.135986,414.421021 397.997406,401.564789 410.485291,387.107666 
	C423.512787,372.025787 434.411591,355.655060 442.813660,337.673920 
	C457.841217,305.513763 465.019073,271.796234 463.146820,236.112732 
	C462.126648,216.668961 458.718384,197.807434 452.551697,179.458221 
	C443.349243,152.075806 429.480988,127.366470 410.209625,105.617706 
	C396.817108,90.503555 382.430511,76.584602 365.412506,65.765564 
	C354.273346,58.683949 342.687469,52.045753 330.622711,46.758099 
	C320.203552,42.191669 308.831390,39.794239 297.870850,36.469864 
	C282.009613,31.659081 265.603180,30.556776 249.217316,30.164856 
	C239.463409,29.931566 229.600616,30.810299 219.913544,32.123920 
	C208.640488,33.652611 197.214981,35.250496 186.387283,38.558529 
	C173.751068,42.419106 161.532791,47.810078 149.437485,53.217690 
	C142.210800,56.448620 135.197006,60.464676 128.751343,65.059105 
	C119.728065,71.490829 111.301292,78.763000 102.659180,85.725075 
	C88.193344,97.378731 76.520752,111.602295 66.246025,126.886475 
	C57.739738,139.539993 49.635960,152.567520 45.113972,167.349503 
	C41.288372,179.855057 37.072090,192.289124 34.181648,205.016647 
	C32.099468,214.185135 32.022793,223.797714 30.857182,233.188095 
	C28.447880,252.597839 30.811424,271.768799 34.600117,290.677185 
	C39.444050,314.852020 48.803932,337.422699 61.800575,358.428101 
	C73.800079,377.821808 88.674431,394.716034 105.920052,409.612762 
	C109.715714,412.891449 114.403969,415.923004 113.988342,422.995148 
	C113.991028,437.244781 113.980232,451.494415 114.017105,465.743958 
	C114.020813,467.177124 114.313072,468.609589 114.471420,470.042358 
	C114.648483,469.850250 114.845825,469.672394 114.995064,469.460663 
	C115.086098,469.331573 115.103035,469.150177 115.882439,468.942017 
z"/>
<path fill="#000000" opacity="1.000000" stroke="none" 
	d="
M108.468658,509.000000 
	C112.709854,505.871307 117.226959,502.391022 122.167274,499.682709 
	C134.789154,492.763397 147.629730,486.244110 160.312897,479.434601 
	C163.372437,477.791962 165.836334,477.349609 169.532043,478.566895 
	C189.571228,485.167297 210.046692,489.563629 231.222458,491.228027 
	C252.862564,492.928955 273.988129,490.648315 295.110718,486.574646 
	C313.386322,483.050049 330.805695,477.280548 347.898560,469.751678 
	C376.938110,456.960724 401.827240,438.576324 424.055542,416.363037 
	C430.688721,409.734283 436.771240,402.350311 442.007446,394.572693 
	C451.236084,380.864929 460.674835,367.121246 468.100952,352.420349 
	C478.293274,332.243439 485.644135,310.830780 489.026672,288.266113 
	C489.481384,285.232971 490.546173,282.291290 491.664246,279.153625 
	C492.000000,355.612000 492.000000,432.224030 492.000000,509.000000 
	C364.312500,509.000000 236.624908,509.000000 108.468658,509.000000 
z"/>
<path fill="#000000" opacity="1.000000" stroke="none" 
	d="
M492.000000,213.531342 
	C491.064728,211.832321 489.629700,209.744614 489.268036,207.485123 
	C482.185333,163.238953 463.952942,124.191872 435.402130,89.710052 
	C410.900543,60.118671 380.926605,37.829483 346.102783,22.119558 
	C325.770294,12.947020 304.466705,6.548268 282.181824,3.842838 
	C280.158417,3.597192 278.248901,2.413442 276.143250,1.332665 
	C347.926514,1.000000 419.853058,1.000000 492.000000,1.000000 
	C492.000000,71.687408 492.000000,142.375046 492.000000,213.531342 
z"/>
<path fill="#000000" opacity="1.000000" stroke="none" 
	d="
M1.000000,272.468658 
	C1.662377,273.210327 2.772231,274.368134 2.921352,275.638702 
	C6.210077,303.659149 14.273070,330.266968 26.707523,355.533356 
	C35.701111,373.807983 47.072556,390.608398 60.491619,405.878021 
	C67.877411,414.282318 76.345123,421.735809 84.655701,430.260010 
	C84.990974,451.428589 84.975731,471.955139 85.041878,492.481476 
	C85.046631,493.956848 85.645828,495.430328 85.968636,496.904694 
	C85.587402,502.761322 90.265083,505.165741 93.892807,508.679871 
	C63.041145,509.000000 32.082287,509.000000 1.000000,509.000000 
	C1.000000,430.312469 1.000000,351.624908 1.000000,272.468658 
z"/>
<path fill="#000000" opacity="1.000000" stroke="none" 
	d="
M272.666687,1.000000 
	C272.382050,1.160693 271.764099,1.321387 271.073059,1.241040 
	C271.444458,1.000000 271.888885,1.000000 272.666687,1.000000 
z"/>
<path fill="#000000" opacity="1.000000" stroke="none" 
	d="
M114.021309,422.066772 
	C114.403969,415.923004 109.715714,412.891449 105.920052,409.612762 
	C88.674431,394.716034 73.800079,377.821808 61.800575,358.428101 
	C48.803932,337.422699 39.444050,314.852020 34.600117,290.677185 
	C30.811424,271.768799 28.447880,252.597839 30.857182,233.188095 
	C32.022793,223.797714 32.099468,214.185135 34.181648,205.016647 
	C37.072090,192.289124 41.288372,179.855057 45.113972,167.349503 
	C49.635960,152.567520 57.739738,139.539993 66.246025,126.886475 
	C76.520752,111.602295 88.193344,97.378731 102.659180,85.725075 
	C111.301292,78.763000 119.728065,71.490829 128.751343,65.059105 
	C135.197006,60.464676 142.210800,56.448620 149.437485,53.217690 
	C161.532791,47.810078 173.751068,42.419106 186.387283,38.558529 
	C197.214981,35.250496 208.640488,33.652611 219.913544,32.123920 
	C229.600616,30.810299 239.463409,29.931566 249.217316,30.164856 
	C265.603180,30.556776 282.009613,31.659081 297.870850,36.469864 
	C308.831390,39.794239 320.203552,42.191669 330.622711,46.758099 
	C342.687469,52.045753 354.273346,58.683949 365.412506,65.765564 
	C382.430511,76.584602 396.817108,90.503555 410.209625,105.617706 
	C429.480988,127.366470 443.349243,152.075806 452.551697,179.458221 
	C458.718384,197.807434 462.126648,216.668961 463.146820,236.112732 
	C465.019073,271.796234 457.841217,305.513763 442.813660,337.673920 
	C434.411591,355.655060 423.512787,372.025787 410.485291,387.107666 
	C397.997406,401.564789 384.135986,414.421021 368.287476,424.908051 
	C346.506561,439.320557 323.013733,450.025543 297.460968,456.296082 
	C280.550354,460.445923 263.374329,462.290649 246.188782,462.734589 
	C225.878967,463.259247 205.975021,458.866241 186.396149,453.535553 
	C181.101822,452.094116 175.919434,450.202942 170.759048,448.317322 
	C163.231949,445.566956 156.732803,447.520782 149.970825,451.337830 
	C138.841827,457.620056 127.268471,463.115112 115.452034,468.503052 
	C115.015022,454.197632 115.037590,440.330994 114.958931,426.464935 
	C114.950600,424.997162 114.348137,423.532745 114.021309,422.066772 
M346.271301,193.776260 
	C328.240326,206.562927 310.114868,219.219177 292.212067,232.182831 
	C280.586365,240.601151 273.160706,240.247742 262.459656,231.026123 
	C245.874771,216.734100 228.959290,202.825851 212.194778,188.742020 
	C203.765533,181.660629 188.917755,181.239822 183.763931,193.914536 
	C180.215012,202.642319 174.894272,210.644150 170.442642,219.011551 
	C161.625565,235.584320 152.870590,252.190125 144.073746,268.773682 
	C135.342346,285.233856 126.575684,301.675323 117.874580,318.151489 
	C117.090363,319.636475 116.672867,321.315125 116.085068,322.903870 
	C116.442261,323.244385 116.799454,323.584900 117.156647,323.925385 
	C119.275200,322.852631 121.514870,321.965515 123.491798,320.675659 
	C133.181519,314.353577 142.744080,307.835815 152.459351,301.553864 
	C166.622009,292.396149 180.900528,283.417755 195.079742,274.285461 
	C200.317703,270.911865 208.833710,270.605286 213.697037,274.456726 
	C222.998062,281.822510 232.105637,289.436676 241.188538,297.072632 
	C251.286407,305.561890 261.082947,314.419250 271.354553,322.689209 
	C280.320740,329.908173 291.556763,327.443634 297.291199,317.455963 
	C301.096222,310.828766 304.691345,304.081451 308.439789,297.421356 
	C318.696869,279.196869 329.008179,261.002899 339.254456,242.772339 
	C348.202789,226.851135 357.123505,210.914215 365.992493,194.948730 
	C369.873810,187.961746 373.595764,180.886276 377.390106,173.850983 
	C376.930511,173.365036 376.470947,172.879089 376.011353,172.393127 
	C366.301361,179.390793 356.591370,186.388458 346.271301,193.776260 
z"/>
<path fill="#AEAEAE" opacity="1.000000" stroke="none" 
	d="
M85.988968,496.442444 
	C85.645828,495.430328 85.046631,493.956848 85.041878,492.481476 
	C84.975731,471.955139 84.990974,451.428589 84.933365,430.433777 
	C85.253960,431.584778 85.946594,433.202850 85.952675,434.823486 
	C86.029205,455.208832 86.006569,475.594574 85.988968,496.442444 
z"/>
<path fill="#AEAEAE" opacity="1.000000" stroke="none" 
	d="
M114.004822,422.530945 
	C114.348137,423.532745 114.950600,424.997162 114.958931,426.464935 
	C115.037590,440.330994 115.015022,454.197632 115.087433,468.528198 
	C115.103035,469.150177 115.086098,469.331573 114.995064,469.460663 
	C114.845825,469.672394 114.648483,469.850250 114.471420,470.042358 
	C114.313072,468.609589 114.020813,467.177124 114.017105,465.743958 
	C113.980232,451.494415 113.991028,437.244781 114.004822,422.530945 
z"/>
<path fill="#090909" opacity="1.000000" stroke="none" 
	d="
M346.576355,193.581192 
	C356.591370,186.388458 366.301361,179.390793 376.011353,172.393127 
	C376.470947,172.879089 376.930511,173.365036 377.390106,173.850983 
	C373.595764,180.886276 369.873810,187.961746 365.992493,194.948730 
	C357.123505,210.914215 348.202789,226.851135 339.254456,242.772339 
	C329.008179,261.002899 318.696869,279.196869 308.439789,297.421356 
	C304.691345,304.081451 301.096222,310.828766 297.291199,317.455963 
	C291.556763,327.443634 280.320740,329.908173 271.354553,322.689209 
	C261.082947,314.419250 251.286407,305.561890 241.188538,297.072632 
	C232.105637,289.436676 222.998062,281.822510 213.697037,274.456726 
	C208.833710,270.605286 200.317703,270.911865 195.079742,274.285461 
	C180.900528,283.417755 166.622009,292.396149 152.459351,301.553864 
	C142.744080,307.835815 133.181519,314.353577 123.491798,320.675659 
	C121.514870,321.965515 119.275200,322.852631 117.156647,323.925385 
	C116.799454,323.584900 116.442261,323.244385 116.085068,322.903870 
	C116.672867,321.315125 117.090363,319.636475 117.874580,318.151489 
	C126.575684,301.675323 135.342346,285.233856 144.073746,268.773682 
	C152.870590,252.190125 161.625565,235.584320 170.442642,219.011551 
	C174.894272,210.644150 180.215012,202.642319 183.763931,193.914536 
	C188.917755,181.239822 203.765533,181.660629 212.194778,188.742020 
	C228.959290,202.825851 245.874771,216.734100 262.459656,231.026123 
	C273.160706,240.247742 280.586365,240.601151 292.212067,232.182831 
	C310.114868,219.219177 328.240326,206.562927 346.576355,193.581192 
z"/>
</svg>