<svg xmlns="http://www.w3.org/2000/svg" height="24" viewBox="0 96 960 960" width="24"><path d="M108.078 925.42V271.516q0-28.414 19.916-48.33 19.916-19.915 48.269-19.915h607.474q28.353 0 48.269 19.915 19.916 19.916 19.916 48.277v449.074q0 28.361-19.916 48.277-19.916 19.915-48.268 19.915H244.769L108.078 925.42Zm55.96-135.227 57.424-57.424h562.191q5.385 0 8.847-3.462 3.462-3.461 3.462-8.846V271.539q0-5.385-3.462-8.846-3.462-3.462-8.847-3.462H176.347q-5.385 0-8.847 3.462-3.462 3.461-3.462 8.846v518.654Zm0-518.654v-12.308 530.962-518.654ZM373.962 651.23 480 586.73l106.23 64.5-28.384-120.576 93.999-81.077-123.423-10.661L480 325.386l-48.368 113.53-123.285 10.661 93.807 81.08-28.192 120.573Z"/></svg>