<svg xmlns="http://www.w3.org/2000/svg" height="24" viewBox="0 96 960 960" width="24"><path d="M337.078 633.46h285.844v-13.499q0-36.23-40.077-59.346Q542.769 537.5 480 537.5t-102.845 23.014q-40.077 23.015-40.077 59.38v13.566Zm142.89-150.691q27.878 0 47.743-19.833 19.865-19.833 19.865-47.711 0-27.879-19.833-47.744-19.832-19.865-47.711-19.865-27.878 0-47.743 19.833-19.865 19.833-19.865 47.711t19.833 47.743q19.832 19.866 47.711 19.866ZM108.078 925.42V271.516q0-28.414 19.916-48.33 19.916-19.915 48.269-19.915h607.474q28.353 0 48.269 19.915 19.916 19.916 19.916 48.277v449.074q0 28.361-19.916 48.277-19.916 19.915-48.268 19.915H244.769L108.078 925.42Zm55.96-135.227 57.424-57.424h562.191q5.385 0 8.847-3.462 3.462-3.461 3.462-8.846V271.539q0-5.385-3.462-8.846-3.462-3.462-8.847-3.462H176.347q-5.385 0-8.847 3.462-3.462 3.461-3.462 8.846v518.654Zm0-518.654v-12.308 530.962-518.654Z"/></svg>