<svg xmlns="http://www.w3.org/2000/svg" height="24" viewBox="0 96 960 960" width="24"><path d="M406.231 410.615h299.73v-55.96h-299.73v55.96Zm0 112.961h299.73v-55.96h-299.73v55.96Zm0 112.961h180.538v-55.96H406.231v55.96ZM286.255 417.115q14.437 0 24.533-10.082 10.096-10.082 10.096-24.384t-10.043-24.495q-10.043-10.192-24.48-10.192-14.438 0-24.534 10.121-10.096 10.121-10.096 24.481 0 14.359 10.044 24.455 10.043 10.096 24.48 10.096Zm0 112.962q14.437 0 24.533-10.083 10.096-10.082 10.096-24.384t-10.043-24.494q-10.043-10.193-24.48-10.193-14.438 0-24.534 10.121-10.096 10.121-10.096 24.481 0 14.359 10.044 24.456 10.043 10.096 24.48 10.096Zm0 112.961q14.437 0 24.533-10.082 10.096-10.083 10.096-24.385 0-14.302-10.043-24.494t-24.48-10.192q-14.438 0-24.534 10.121-10.096 10.121-10.096 24.48 0 14.36 10.044 24.456 10.043 10.096 24.48 10.096ZM108.078 925.42V271.516q0-28.414 19.916-48.33 19.916-19.915 48.269-19.915h607.474q28.353 0 48.269 19.915 19.916 19.916 19.916 48.277v449.074q0 28.361-19.916 48.277-19.916 19.915-48.268 19.915H244.769L108.078 925.42Zm55.96-135.227 57.424-57.424h562.191q5.385 0 8.847-3.462 3.462-3.461 3.462-8.846V271.539q0-5.385-3.462-8.846-3.462-3.462-8.847-3.462H176.347q-5.385 0-8.847 3.462-3.462 3.461-3.462 8.846v518.654Zm0-518.654v-12.308 530.962-518.654Z"/></svg>