<svg xmlns="http://www.w3.org/2000/svg" height="24" viewBox="0 96 960 960" width="24"><path d="M202.87 984.131q-37.783 0-64.392-26.609-26.609-26.609-26.609-64.392V338.87q0-37.783 26.609-64.392 26.609-26.609 64.392-26.609H240v-80h85.5v80h309v-80H720v80h37.13q37.783 0 64.392 26.609 26.609 26.609 26.609 64.392v554.26q0 37.783-26.609 64.392-26.609 26.609-64.392 26.609H202.87Zm0-91.001h554.26V496H202.87v397.13Zm0-477.13h554.26v-77.13H202.87V416Zm0 0v-77.13V416ZM280 658.152v-83.587h400v83.587H280Zm0 159.283v-83.587h280v83.587H280Z"/></svg>