<svg xmlns="http://www.w3.org/2000/svg" height="24" viewBox="0 96 960 960" width="24"><path d="M480.181 698.462q59.434 0 100.858-41.604 41.423-41.605 41.423-101.039 0-59.434-41.604-100.858-41.605-41.423-101.039-41.423-59.434 0-100.858 41.604-41.423 41.605-41.423 101.039 0 59.434 41.604 100.858 41.605 41.423 101.039 41.423Zm-.109-35.693q-44.457 0-75.649-31.12t-31.192-75.577q0-44.457 31.12-75.649t75.577-31.192q44.457 0 75.649 31.12t31.192 75.577q0 44.457-31.12 75.649t-75.577 31.192Zm.038 148.308q-127.61 0-232.572-69.558Q142.577 671.962 89.846 556q52.731-115.962 157.582-185.519 104.852-69.558 232.462-69.558 127.61 0 232.572 69.558Q817.423 440.038 870.154 556q-52.731 115.962-157.582 185.519-104.852 69.558-232.462 69.558ZM480 556Zm0 218.154q111.617 0 205.634-58.812Q779.65 656.53 828.923 556 779.65 455.47 685.634 396.658 591.617 337.846 480 337.846q-111.617 0-205.634 58.812Q180.35 455.47 131.077 556q49.273 100.53 143.289 159.342Q368.383 774.154 480 774.154Z"/></svg>