<svg xmlns="http://www.w3.org/2000/svg" height="40" viewBox="0 96 960 960" width="40"><path d="M256.923 856q-73.564 0-125.244-51.647-51.68-51.647-51.68-125.558 0-70.564 49.565-122.487 49.564-51.923 116.385-54.564 11.666-88.667 78.436-147.129 66.769-58.461 156.436-58.461 99.157 0 167.219 69.857 68.063 69.857 68.063 169.168v47.795h24.615q58.436-1.23 98.859 38.141Q880 660.487 880 719.231q0 56.897-39.167 96.833Q801.667 856 744.769 856H521.538q-24.577 0-41.519-16.942-16.942-16.942-16.942-41.519v-248.36l-90 90.36-24.257-23.488L480 484.872l131.18 131.179-24.257 23.488-90-90.36v248.36q0 9.231 7.692 16.923 7.693 7.692 16.923 7.692h221.693q42.974 0 72.949-30.057 29.974-30.058 29.974-72.693t-29.974-72.609q-29.975-29.974-73.13-29.974h-60.794v-81.642q0-84.446-59.064-144.813Q564.128 330 479.436 330q-84.693 0-144.09 60.366-59.397 60.367-59.397 144.813h-21.385q-56.821 0-98.769 41.898-41.949 41.897-41.949 102.095 0 58.864 41.901 100.923 41.901 42.059 101.176 42.059h112.308V856H256.923ZM480 592.923Z"/></svg>