<svg xmlns="http://www.w3.org/2000/svg" xmlns:xlink="http://www.w3.org/1999/xlink" viewBox="9 4 28 28">
  <defs>
    <filter id="Home" x="0" y="0" width="46" height="46" filterUnits="userSpaceOnUse">
      <feOffset dy="5" input="SourceAlpha"/>
      <feGaussianBlur stdDeviation="3" result="blur"/>
      <feFlood flood-opacity="0.161"/>
      <feComposite operator="in" in2="blur"/>
      <feComposite in="SourceGraphic"/>
    </filter>
  </defs>
  <g transform="matrix(1, 0, 0, 1, 0, 0)" filter="url(#Home)">
    <g id="Home-2" data-name="Home" transform="translate(-1265.33 -10.7)" fill="none" stroke-linejoin="round">
      <path d="M1283.835,40.7h-7.5v-12l12-12,12,12v12h-7.5V34.873a2,2,0,0,0-2-2h-5a2,2,0,0,0-2,2V40.7Z" stroke="none"/>
      <path d="M 1283.834716796875 40.69989776611328 L 1283.834716796875 34.87321090698242 C 1283.834716796875 33.7705078125 1284.732299804688 32.87339782714844 1285.83544921875 32.87339782714844 L 1290.831298828125 32.87339782714844 C 1291.93408203125 32.87339782714844 1292.831176757812 33.7705078125 1292.831176757812 34.87321090698242 L 1292.831176757812 40.69890975952148 L 1300.33349609375 40.69791030883789 L 1300.33349609375 28.69919967651367 L 1288.333862304688 16.69949913024902 L 1276.333251953125 28.69919967651367 L 1276.333251953125 40.69890975952148 L 1283.834716796875 40.69989776611328 M 1283.834716796875 42.69989776611328 L 1276.3330078125 42.69890975952148 C 1275.228515625 42.69876098632812 1274.333251953125 41.80337905883789 1274.333251953125 40.69890975952148 L 1274.333251953125 28.69919967651367 C 1274.333251953125 28.16873931884766 1274.5439453125 27.66000938415527 1274.919067382812 27.2849292755127 L 1286.919677734375 15.28522968292236 C 1287.700805664062 14.50423240661621 1288.967163085938 14.50425815582275 1289.748046875 15.2852897644043 L 1301.747680664062 27.28499031066895 C 1302.122802734375 27.66005897521973 1302.33349609375 28.16876983642578 1302.33349609375 28.69919967651367 L 1302.33349609375 40.69791030883789 C 1302.33349609375 41.8023796081543 1301.438232421875 42.69775772094727 1300.333740234375 42.69791030883789 L 1292.831420898438 42.69890975952148 C 1292.300903320312 42.69897842407227 1291.792236328125 42.48830032348633 1291.417114257812 42.11322021484375 C 1291.041870117188 41.73814010620117 1290.831176757812 41.22938919067383 1290.831176757812 40.69890975952148 L 1290.831176757812 34.87391662597656 C 1290.831298828125 34.87395095825195 1290.829345703125 34.87272262573242 1290.828125 34.87205123901367 L 1285.835693359375 34.87339782714844 C 1285.835693359375 34.87355804443359 1285.835327148438 34.87411499023438 1285.834716796875 34.87478256225586 L 1285.834716796875 40.69889831542969 C 1285.834716796875 41.80347061157227 1284.939331054688 42.69989776611328 1283.834716796875 42.69989776611328 Z" stroke="none" fill="#707070"/>
    </g>
  </g>
</svg>