<svg xmlns="http://www.w3.org/2000/svg" width="47.218" height="39.1" viewBox="0 0 47.218 39.1">
  <g id="Home" transform="translate(-334.978 -195.055)">
    <g id="Path_38" data-name="Path 38" transform="translate(344.114 217.727)" fill="#45425f">
      <path d="M 23.6397819519043 13.92874431610107 L 5.909942150115967 13.92874431610107 C 4.02969217300415 13.92874431610107 2.500002384185791 12.606764793396 2.500002384185791 10.98183441162109 L 2.500002384185791 -3.724825382232666 C 2.500002384185791 -4.747105121612549 2.512762308120728 -5.815535545349121 2.665272235870361 -6.656375408172607 C 2.81219220161438 -7.466445446014404 3.018092393875122 -7.660435199737549 3.020112276077271 -7.662025451660156 C 3.039462327957153 -7.673425197601318 3.147632360458374 -7.708455562591553 3.366702318191528 -7.708455562591553 L 4.022802352905273 -7.708455562591553 L 4.594352245330811 -8.030634880065918 L 15.03962898254395 -13.91869640350342 L 24.54494285583496 -8.078394889831543 L 25.14703178405762 -7.708455562591553 L 25.85370254516602 -7.708455562591553 C 25.9783821105957 -7.708455562591553 26.20383262634277 -7.696305274963379 26.31282234191895 -7.614955425262451 C 26.40989303588867 -7.542505264282227 26.52048301696777 -7.368455410003662 26.61624145507812 -7.137445449829102 C 27.04972267150879 -6.091665267944336 27.04972267150879 -4.310225486755371 27.04972267150879 -3.724825382232666 L 27.04972267150879 10.98183441162109 C 27.04972267150879 12.606764793396 25.52003288269043 13.92874431610107 23.6397819519043 13.92874431610107 Z" stroke="none"/>
      <path d="M 14.9850025177002 -11.01806545257568 L 5.037942886352539 -5.410849571228027 C 5.000007629394531 -4.772599220275879 5.000001907348633 -4.050894737243652 5.000001907348633 -3.724825382232666 L 5.000001907348633 10.98183441162109 C 5.000001907348633 11.07027435302734 5.292661666870117 11.42874431610107 5.909942626953125 11.42874431610107 L 23.6397819519043 11.42874431610107 C 24.2570629119873 11.42874431610107 24.54972267150879 11.07027435302734 24.54972267150879 10.98183441162109 L 24.54972267150879 -3.724825382232666 C 24.54972267150879 -4.364503860473633 24.52435302734375 -4.84732723236084 24.48974227905273 -5.208455562591553 L 24.44037246704102 -5.208455562591553 L 14.9850025177002 -11.01806545257568 M 15.09424209594727 -16.8193359375 L 25.85370254516602 -10.20845508575439 C 29.11767196655273 -10.20845508575439 29.54972267150879 -6.733075141906738 29.54972267150879 -3.724825382232666 L 29.54972267150879 10.98183441162109 C 29.54972267150879 13.99007511138916 26.90375137329102 16.42874526977539 23.6397819519043 16.42874526977539 L 5.909942626953125 16.42874526977539 C 2.645973205566406 16.42874526977539 1.9073486328125e-06 13.99007511138916 1.9073486328125e-06 10.98183441162109 L 1.9073486328125e-06 -3.724825382232666 C 1.9073486328125e-06 -6.733075141906738 0.10272216796875 -10.20845508575439 3.366703033447266 -10.20845508575439 L 15.09424209594727 -16.8193359375 Z" stroke="none" fill="#45425f"/>
    </g>
    <path id="Path_39" data-name="Path 39" d="M0,17.229,9.609,9.153l1.068-.9L20.5,0" transform="translate(338.5 198.583)" fill="none" stroke="#45425f" stroke-linecap="round" stroke-width="5"/>
    <path id="Rectangle_187" data-name="Rectangle 187" d="M5,0H5a5,5,0,0,1,5,5V15a0,0,0,0,1,0,0H0a0,0,0,0,1,0,0V5A5,5,0,0,1,5,0Z" transform="translate(354 219)" fill="#ffa114"/>
    <line id="Line_62" data-name="Line 62" x1="19.778" y1="17.312" transform="translate(358.889 198.583)" fill="none" stroke="#45425f" stroke-linecap="round" stroke-width="5"/>
    <circle id="Ellipse_12" data-name="Ellipse 12" cx="2" cy="2" r="2" transform="translate(357 208)" fill="#ffa114"/>
  </g>
</svg>
