<svg xmlns="http://www.w3.org/2000/svg" height="24" viewBox="0 96 960 960" width="24"><path d="M192 924q-26 0-43-17t-17-43V488q0-26 17-43t43-17h220V256q0-12 8-20t20-8h80q12 0 20 8t8 20v172h220q26 0 43 17t17 43v376q0 26-17 43t-43 17H192Zm0-28h576q14 0 23-9t9-23V488q0-14-9-23t-23-9H548q0 18-10 23t-28 5h-60q-18 0-28-5t-10-23H192q-14 0-23 9t-9 23v376q0 14 9 23t23 9Zm64-110h208v-2q0-13-7-23.5T438 744q-19-8-38.5-12t-39.5-4q-20 0-39.5 4T282 744q-12 6-19 16.5t-7 23.5v2Zm304-62h160v-28H560v28Zm-200-28q18 0 31-13t13-31q0-18-13-31t-31-13q-18 0-31 13t-13 31q0 18 13 31t31 13Zm200-60h160v-28H560v28ZM440 456h80V256h-80v200Zm40 220Z"/></svg>