<svg xmlns="http://www.w3.org/2000/svg" height="40" viewBox="0 96 960 960" width="40"><path d="M480 924q-72 0-135.5-27.5T233.667 822q-47.334-47-74.5-110.5Q132 648 132 575.333q0-72 27.167-135.5 27.166-63.5 74.5-110.5 47.333-47 110.833-74.166Q408 228 480 228t135.5 27.167q63.5 27.166 110.833 74.166 47.334 47 74.5 110.5Q828 503.333 828 575.333 828 648 800.833 711.5q-27.166 63.5-74.5 110.5Q679 869 615.5 896.5T480 924Zm0-22.333q40-47.334 64.667-94.334Q569.333 760.333 585 700H375q17 64.333 41.333 111 24.334 46.667 63.667 90.667Zm-31-2.334q-32.333-33.666-59.333-88.166T350 700H179.333q38 86 108.334 137.667Q358 889.333 449 899.333Zm62.667 0q87.666-8.666 159.333-61.666T780.667 700H610q-17.667 58.333-44.333 112.167-26.667 53.833-54 87.166ZM171.667 676h173.666q-5-27.333-7-52.5t-2-48.167q0-23 2-47.833t7-51.5H171.667Q164 497.667 160 523.667t-4 51.666q0 26.334 4 52.334 4 26 11.667 48.333Zm197.666 0h221.334q5-28 7-51.833 2-23.834 2-48.834 0-24.333-2-47.833t-7-51.5H369.333q-5 28-7 51.5t-2 47.833q0 25 2 48.834 2 23.833 7 51.833Zm245.334 0h173.666Q796 653.667 800 627.667t4-52.334q0-25.666-4-51.666-4-26-11.667-47.667h-173q4.334 28.667 6.334 53.167t2 46.166q0 23-2 47.834-2 24.833-7 52.833ZM610 452h170.667q-38.334-87.333-107.5-138.667Q604 262 511 251.667q32.333 38.666 58.333 91.333T610 452Zm-235 0h210.667q-17-61.333-42.834-111.167Q517 291 480 250.333 443.667 289 418.5 337.5T375 452Zm-195.667 0H350q14.667-56.333 40.333-108.667 25.667-52.333 58-91.666-93.333 11-162 62.166Q217.667 365 179.333 452Z"/></svg>