<svg xmlns="http://www.w3.org/2000/svg" height="40" viewBox="0 -960 960 960" width="40"><path d="M244.931-450.616q-11.893 0-20.592-8.785-8.698-8.785-8.698-20.666 0-11.882 8.785-20.6 8.785-8.717 20.666-8.717 11.882 0 20.856 8.785 8.975 8.785 8.975 20.666 0 11.882-8.944 20.6-8.944 8.717-21.048 8.717Zm235.002 0q-11.882 0-20.6-8.785-8.717-8.785-8.717-20.666 0-11.882 8.785-20.6 8.785-8.717 20.666-8.717 11.882 0 20.6 8.785 8.717 8.785 8.717 20.666 0 11.882-8.785 20.6-8.785 8.717-20.666 8.717Zm234.975 0q-11.882 0-20.856-8.785-8.975-8.785-8.975-20.666 0-11.882 8.944-20.6 8.944-8.717 21.048-8.717 11.893 0 20.592 8.785 8.698 8.785 8.698 20.666 0 11.882-8.785 20.6-8.785 8.717-20.666 8.717Z"/></svg>