<svg xmlns="http://www.w3.org/2000/svg" width="20.318" height="15.803" viewBox="0 0 20.318 15.803">
  <path id="mail_FILL0_wght200_GRAD0_opsz24" d="M121.823-744.2a1.766,1.766,0,0,1-1.3-.522,1.766,1.766,0,0,1-.522-1.3v-12.156a1.766,1.766,0,0,1,.522-1.3,1.766,1.766,0,0,1,1.3-.522h16.671a1.766,1.766,0,0,1,1.3.522,1.766,1.766,0,0,1,.522,1.3v12.156a1.766,1.766,0,0,1-.522,1.3,1.766,1.766,0,0,1-1.3.522Zm8.336-7.771-9.03-5.9v11.852a.676.676,0,0,0,.2.5.676.676,0,0,0,.5.2h16.671a.676.676,0,0,0,.5-.2.676.676,0,0,0,.2-.5v-11.852Zm0-1.259,8.683-5.644H121.476Zm-9.03-4.645v11.852a.676.676,0,0,0,.2.5.676.676,0,0,0,.5.2h-.695Z" transform="translate(-120 760)" fill="#6f6af8"/>
</svg>
