<svg xmlns="http://www.w3.org/2000/svg" width="33.003" height="31.961" viewBox="0 0 33.003 31.961">
  <g id="NoticeBoard" transform="translate(-283.548 -254)">
    <g id="Path_97" data-name="Path 97" transform="translate(283.548 254)" fill="none">
      <path d="M5,0H28a5,5,0,0,1,5,5V17.217a5,5,0,0,1-5,5H5a5,5,0,0,1-5-5V5A5,5,0,0,1,5,0Z" stroke="none"/>
      <path d="M 4.999998092651367 2.499998092651367 C 3.621498107910156 2.499998092651367 2.499998092651367 3.621498107910156 2.499998092651367 4.999998092651367 L 2.499998092651367 17.21679878234863 C 2.499998092651367 18.59529876708984 3.621498107910156 19.71679878234863 4.999998092651367 19.71679878234863 L 28.00341796875 19.71679878234863 C 29.38191986083984 19.71679878234863 30.50341796875 18.59529876708984 30.50341796875 17.21679878234863 L 30.50341796875 4.999998092651367 C 30.50341796875 3.621498107910156 29.38191986083984 2.499998092651367 28.00341796875 2.499998092651367 L 4.999998092651367 2.499998092651367 M 4.999998092651367 -1.9073486328125e-06 L 28.00341796875 -1.9073486328125e-06 C 30.76483917236328 -1.9073486328125e-06 33.00341796875 2.238578796386719 33.00341796875 4.999998092651367 L 33.00341796875 17.21679878234863 C 33.00341796875 19.97821807861328 30.76483917236328 22.21679878234863 28.00341796875 22.21679878234863 L 4.999998092651367 22.21679878234863 C 2.238578796386719 22.21679878234863 0 19.97821807861328 0 17.21679878234863 L 0 4.999998092651367 C 0 2.238578796386719 2.238578796386719 -1.9073486328125e-06 4.999998092651367 -1.9073486328125e-06 Z" stroke="none" fill="#003a5d"/>
    </g>
    <g id="Group_135" data-name="Group 135" transform="translate(0.459 -1.312)">
      <line id="Line_120" data-name="Line 120" y2="9" transform="translate(299.59 260.38)" fill="none" stroke="#003a5d" stroke-width="1"/>
      <path id="Path_88" data-name="Path 88" d="M0,0-.142,1.668-.758,8.9" transform="translate(300.389 260.38)" fill="#003a5d" stroke="#003a5d" stroke-width="1"/>
      <path id="Path_89" data-name="Path 89" d="M-.758,0l.129,1.668L-.071,8.9" transform="translate(299.549 260.38)" fill="#003a5d" stroke="#003a5d" stroke-width="1"/>
      <g id="Ellipse_28" data-name="Ellipse 28" transform="translate(298.59 270.46)" fill="#003a5d" stroke="#003a5d" stroke-width="1">
        <circle cx="1" cy="1" r="1" stroke="none"/>
        <circle cx="1" cy="1" r="0.5" fill="none"/>
      </g>
    </g>
    <path id="Path_100" data-name="Path 100" d="M0,0H27" transform="translate(286.549 278.38)" fill="none" stroke="#003a5d" stroke-width="2.5"/>
    <path id="Path_98" data-name="Path 98" d="M4,7,0,0" transform="translate(306.771 278.38)" fill="none" stroke="#003a5d" stroke-width="2"/>
    <path id="Path_99" data-name="Path 99" d="M0,7,5,0" transform="translate(288.771 278.38)" fill="none" stroke="#003a5d" stroke-width="2"/>
  </g>
</svg>
