<svg xmlns="http://www.w3.org/2000/svg" height="20" viewBox="0 96 960 960" width="20"><path d="M228.309 891.999q-27.008 0-45.658-18.65-18.65-18.65-18.65-45.658V324.309q0-27.008 18.65-45.658 18.65-18.65 45.658-18.65h236.305V312H228.309q-4.616 0-8.463 3.846-3.846 3.847-3.846 8.463v503.382q0 4.616 3.846 8.463 3.847 3.846 8.463 3.846h503.382q4.616 0 8.463-3.846 3.846-3.847 3.846-8.463V591.386h51.999v236.305q0 27.008-18.65 45.658-18.65 18.65-45.658 18.65H228.309Zm159.46-186.615-37.153-37.153L706.847 312H576v-51.999h219.999V480H744V349.153L387.769 705.384Z"/></svg>