<?xml version="1.0" encoding="utf-8"?>
<!-- Generator: Adobe Illustrator 21.1.0, SVG Export Plug-In . SVG Version: 6.00 Build 0)  -->
<svg version="1.1" id="Слой_1" xmlns="http://www.w3.org/2000/svg" xmlns:xlink="http://www.w3.org/1999/xlink" x="0px" y="0px"
	 viewBox="0 0 120 150" style="enable-background:new 0 0 120 150;" xml:space="preserve">
<style type="text/css">
	.st0{fill:#EE4135;}
	.st1{fill-opacity:0.2;}
	.st2{fill-opacity:0.1;}
	.st3{enable-background:new    ;}
	.st4{fill:#FFFFFF;}
	.st5{opacity:0.4;enable-background:new    ;}
	.st6{fill:#F9F7EF;fill-opacity:0.8;}
</style>
<g>
	<path class="st0" d="M78,8.6H17.5c-5.2,0-9.5,4.3-9.5,9.5v41.6v3V133c0,5.2,4.3,9.5,9.5,9.5h86.1c5.2,0,9.5-4.3,9.5-9.5V62.7v-3
		V44.1L78,8.6z"/>
	<rect x="7.9" y="108.7" class="st1" width="105.2" height="3"/>
	<path class="st2" d="M7.9,111.7V133c0,5.2,4.3,9.5,9.5,9.5h86.1c5.2,0,9.5-4.3,9.5-9.5v-21.3H7.9z"/>
	<g class="st3">
		<path class="st4" d="M51.6,124.7c0,2.8-2.1,5.2-5.7,5.2c-0.3,0-1.2,0-1.7-0.1v4.3c0,0.6-0.5,1-1,1h-1.5c-0.6,0-1-0.5-1-1v-13.4
			c0-0.6,0.5-1,1-1c1.2,0,2.9,0,3.7,0C50,119.5,51.6,122,51.6,124.7z M44.1,126.4c0.5,0.1,1.1,0.1,1.6,0.1c0.9,0,2.1-0.4,2.1-1.9
			c0-1.4-0.9-1.8-2.1-1.8c-0.5,0-0.8,0-1.6,0V126.4z"/>
		<path class="st4" d="M59.4,119.5c6.2,0,8.7,3.6,8.7,7.7c0,4.3-3,7.9-8.9,7.9c-0.7,0-2.1,0-3.7,0c-0.6,0-1-0.5-1-1v-13.4
			c0-0.6,0.5-1,1-1C56.8,119.6,58.6,119.5,59.4,119.5z M58,131.8c0.5,0,0.8,0,1.3,0c3.1,0,5-1.7,5-4.6c0-2.9-2.1-4.4-5-4.4
			c-0.4,0-0.9,0-1.3,0.1V131.8z"/>
		<path class="st4" d="M74.5,134.1c0,0.6-0.5,1-1,1H72c-0.6,0-1-0.5-1-1v-13.5c0-0.6,0.5-1,1-1h6.9c0.6,0,1,0.5,1,1v1.3
			c0,0.6-0.5,1-1,1h-4.4v3.3h3.7c0.6,0,1,0.5,1,1v1.3c0,0.6-0.5,1-1,1h-3.7V134.1z"/>
	</g>
	<path class="st5" d="M78,8.6l-3.6,32.8c0,5.2,4.3,9.5,9.5,9.5l29.2-6.8L78,8.6z"/>
	<path class="st6" d="M78.1,8.6v25.9c0,5.2,4.3,9.5,9.5,9.5h25.5L78.1,8.6z"/>
	<path class="st4" d="M41.5,101L41.5,101c-0.7,0-1.5-0.2-2.1-0.7c-2.2-1.7-2.5-3.6-2.4-4.9c0.4-3.5,4.7-7.2,13-11
		c3.2-7.1,6.4-15.8,8.2-23.2C56,56.6,53.9,50.6,55.4,47c0.5-1.2,1.2-2.2,2.5-2.6c0.5-0.1,1.7-0.4,2.2-0.4c1.1,0,2,1.4,2.7,2.2
		c0.6,0.9,2.1,2.5-0.7,14.7c2.9,6,7,12.1,11,16.3c2.9-0.5,5.2-0.7,7.2-0.7c3.4,0,5.5,0.7,6.2,2.4c0.7,1.4,0.4,2.9-0.9,4.6
		c-1.2,1.6-2.9,2.6-4.7,2.6c-2.6,0-5.7-1.6-9.1-5c-6.1,1.2-13.3,3.6-19.1,6.1c-1.7,3.9-3.5,7-5.1,9.2C45.2,99.7,43.3,101,41.5,101z
		 M47.2,90.1c-4.6,2.6-6.5,4.7-6.6,6c0,0.2-0.1,0.7,0.9,1.5C41.7,97.3,43.7,96.4,47.2,90.1z M76.6,80.5c1.7,1.4,2.2,2,3.4,2
		c0.5,0,2,0,2.6-1c0.4-0.5,0.5-0.7,0.5-0.9c-0.2-0.1-0.6-0.4-2.5-0.4C79.5,80.2,78.1,80.2,76.6,80.5z M60.5,66.3
		c-1.5,5.4-3.6,11.1-5.7,16.3c4.5-1.7,9.5-3.2,14.1-4.4C65.8,74.7,62.9,70.5,60.5,66.3z M59.1,48c-0.2,0.1-2.9,3.7,0.2,7
		C61.4,50.3,59.3,48,59.1,48z"/>
</g>
</svg>
