<svg xmlns="http://www.w3.org/2000/svg" width="20.742" height="19.44" viewBox="0 0 20.742 19.44">
  <path id="person_FILL0_wght200_GRAD-25_opsz24" d="M215.909,326.99a4.421,4.421,0,1,1,3.123-1.295A4.256,4.256,0,0,1,215.909,326.99Zm-10.371,10.6v-2.349a3,3,0,0,1,.524-1.7,3.525,3.525,0,0,1,1.439-1.223,22.192,22.192,0,0,1,4.227-1.516,17.371,17.371,0,0,1,8.367,0,22.029,22.029,0,0,1,4.227,1.515,3.521,3.521,0,0,1,1.436,1.223,3,3,0,0,1,.523,1.7v2.349Zm1.4-1.4h17.952v-.95a1.577,1.577,0,0,0-.324-.954,2.748,2.748,0,0,0-.9-.76,19.1,19.1,0,0,0-3.816-1.371,16.691,16.691,0,0,0-7.88,0,18.721,18.721,0,0,0-3.791,1.371,2.7,2.7,0,0,0-.916.763,1.576,1.576,0,0,0-.324.948Zm8.976-10.6a3.032,3.032,0,1,0-2.135-.888A2.911,2.911,0,0,0,215.909,325.6ZM215.909,322.572ZM215.909,336.2Z" transform="translate(-205.538 -318.154)" fill="#ffa114"/>
</svg>
