<svg xmlns="http://www.w3.org/2000/svg" width="12.639" height="21.064" viewBox="0 0 12.639 21.064">
  <path id="phone_iphone_FILL0_wght200_GRAD0_opsz24" d="M241.7-858.936a1.648,1.648,0,0,1-1.214-.487,1.648,1.648,0,0,1-.487-1.214V-878.3a1.648,1.648,0,0,1,.487-1.214A1.648,1.648,0,0,1,241.7-880h9.236a1.648,1.648,0,0,1,1.214.487,1.648,1.648,0,0,1,.487,1.214v17.662a1.648,1.648,0,0,1-.487,1.214,1.648,1.648,0,0,1-1.214.487Zm-.648-4.7v3a.62.62,0,0,0,.2.446.62.62,0,0,0,.446.2h9.236a.62.62,0,0,0,.446-.2.62.62,0,0,0,.2-.446v-3ZM246.319-861a.778.778,0,0,0,.568-.242.778.778,0,0,0,.242-.568.778.778,0,0,0-.242-.568.778.778,0,0,0-.568-.242.778.778,0,0,0-.568.242.778.778,0,0,0-.242.568.777.777,0,0,0,.242.568A.778.778,0,0,0,246.319-861Zm-5.266-3.686h10.532v-11.626H241.053Zm0-12.679h10.532v-.932a.62.62,0,0,0-.2-.446.62.62,0,0,0-.446-.2H241.7a.62.62,0,0,0-.446.2.62.62,0,0,0-.2.446Zm0,13.732v0Zm0-13.732v0Z" transform="translate(-240 880)" fill="#6f6af8"/>
</svg>
