<svg xmlns="http://www.w3.org/2000/svg" height="20" viewBox="0 96 960 960" width="20"><path d="M231.539 884.729q-24.957 0-42.613-17.655-17.655-17.656-17.655-42.613V327.539q0-24.957 17.655-42.613 17.656-17.655 42.613-17.655h497.169q10.508 0 20.592 4.23 10.084 4.231 16.161 9.193l-37.23 37.229q-1.153-1.154-2.884-1.923-1.731-.769-4.039-.769H231.539q-5.385 0-8.846 3.462-3.462 3.461-3.462 8.846v496.922q0 5.385 3.462 8.846 3.461 3.462 8.846 3.462h496.922q5.385 0 8.846-3.462 3.462-3.461 3.462-8.846v-243l47.96-47.96v290.96q0 24.957-17.655 42.613-17.656 17.655-42.613 17.655H231.539ZM481 750.845 289.848 558.693l34.23-34.422 157.465 158.307 325.649-324.615 33.153 34.73L481 750.845Z"/></svg>