<svg xmlns="http://www.w3.org/2000/svg" width="44.978" height="43.073" viewBox="0 0 44.978 43.073">
  <g id="Starfilled" transform="translate(7775.168 8247.129)" fill="#fff">
    <path d="M -7740.08447265625 -8205.8701171875 L -7752.58056640625 -8214.6396484375 L -7752.8046875 -8214.80859375 L -7753.20556640625 -8215.1123046875 L -7753.638671875 -8214.8564453125 L -7754.6328125 -8214.26953125 L -7754.63525390625 -8214.2685546875 L -7754.63818359375 -8214.2666015625 L -7767.52978515625 -8206.5087890625 L -7762.30078125 -8220.052734375 L -7762.111328125 -8220.544921875 L -7762.5087890625 -8220.8896484375 L -7773.14501953125 -8230.1181640625 C -7770.076171875 -8230.1513671875 -7763.98974609375 -8230.21875 -7758.9091796875 -8230.2861328125 L -7758.392578125 -8230.29296875 L -7758.21484375 -8230.7783203125 L -7753.0244140625 -8244.9443359375 L -7747.8662109375 -8230.7919921875 L -7747.68896484375 -8230.3056640625 L -7747.1708984375 -8230.298828125 C -7746.6298828125 -8230.2919921875 -7746.33544921875 -8230.287109375 -7746.33447265625 -8230.287109375 L -7746.32861328125 -8230.287109375 L -7746.322265625 -8230.287109375 L -7732.24462890625 -8230.287109375 L -7743.34033203125 -8220.9375 L -7743.6259765625 -8220.76953125 L -7744.12109375 -8220.4775390625 L -7743.96826171875 -8219.9228515625 L -7740.08447265625 -8205.8701171875 Z" stroke="none"/>
    <path d="M -7741.36376953125 -8207.68359375 L -7744.9970703125 -8220.83203125 L -7743.775390625 -8221.5517578125 L -7734.298828125 -8229.537109375 L -7746.34716796875 -8229.537109375 C -7746.3486328125 -8229.537109375 -7746.64208984375 -8229.5419921875 -7747.1806640625 -8229.548828125 L -7748.21630859375 -8229.5615234375 L -7748.57080078125 -8230.53515625 L -7753.0263671875 -8242.7587890625 L -7757.8662109375 -8229.5498046875 L -7758.89892578125 -8229.5361328125 C -7763.04541015625 -8229.4814453125 -7767.86181640625 -8229.42578125 -7771.1611328125 -8229.3896484375 L -7761.2216796875 -8220.765625 L -7766.0419921875 -8208.279296875 L -7755.01416015625 -8214.916015625 L -7753.15380859375 -8216.013671875 L -7752.138671875 -8215.2451171875 L -7741.36376953125 -8207.68359375 M -7738.80517578125 -8204.0556640625 L -7753.0224609375 -8214.033203125 L -7753.25732421875 -8214.2109375 L -7754.25146484375 -8213.6240234375 L -7769.01708984375 -8204.73828125 L -7763.00048828125 -8220.3232421875 L -7773.71240234375 -8229.6171875 L -7775.16845703125 -8230.7138671875 L -7774.9765625 -8230.7138671875 L -7775.12939453125 -8230.8466796875 C -7775.12939453125 -8230.8466796875 -7766.08349609375 -8230.94140625 -7758.9189453125 -8231.0361328125 L -7753.0224609375 -8247.12890625 L -7747.16162109375 -8231.048828125 C -7746.61767578125 -8231.0419921875 -7746.322265625 -8231.037109375 -7746.322265625 -8231.037109375 L -7730.19091796875 -8231.037109375 L -7742.9052734375 -8220.3232421875 L -7743.2451171875 -8220.123046875 L -7738.80517578125 -8204.0556640625 Z" stroke="none" fill="#8a85b4"/>
  </g>
</svg>
