<svg xmlns="http://www.w3.org/2000/svg" height="24" viewBox="0 96 960 960" width="24"><path d="M479.971 947.922q-77.125 0-145.075-29.097-67.949-29.097-118.258-79.441-50.309-50.345-79.435-118.239-29.125-67.894-29.125-145.078 0-77.528 29.102-145.283 29.102-67.756 79.456-118.106 50.353-50.349 118.26-79.475Q402.802 204.078 480 204.078q63.273 0 119.233 19.154 55.959 19.154 102.728 53.654l-40.653 41.153q-38.684-27.512-84.31-42.756-45.625-15.245-96.998-15.245-131.692 0-223.827 92.135Q164.038 444.308 164.038 576t92.135 223.827Q348.308 891.962 480 891.962t223.827-92.135Q795.962 707.692 795.962 576q0-22.333-3.174-43.702-3.173-21.369-9.019-42.106l44.73-44.807q11.307 30.654 17.365 63.333 6.058 32.68 6.058 67.282 0 77.229-29.097 145.162t-79.441 118.229q-50.345 50.296-118.067 79.414-67.722 29.117-145.346 29.117Zm-55.933-205.808L271.924 590l39.73-39.73 112.384 112.385 388.154-388.461 39.73 39.729-427.884 428.191Z"/></svg>