<svg xmlns="http://www.w3.org/2000/svg" width="30.75" height="30.75" viewBox="0 0 30.75 30.75">
  <path id="task_alt_FILL0_wght200_GRAD0_opsz24" d="M135.381,246.75a14.986,14.986,0,0,1-6-1.21,15.353,15.353,0,0,1-8.173-8.165,15.445,15.445,0,0,1,0-11.991,15.355,15.355,0,0,1,8.168-8.173,15.507,15.507,0,0,1,10.959-.4,15.476,15.476,0,0,1,4.269,2.264l-1.229,1.271a13.5,13.5,0,0,0-3.715-1.947,13.683,13.683,0,1,0,9.379,12.975,13.417,13.417,0,0,0-.151-2.023,12.31,12.31,0,0,0-.453-1.929l1.363-1.4a15.236,15.236,0,0,1,.71,2.6,15.493,15.493,0,0,1,.24,2.746,14.977,14.977,0,0,1-1.21,6,15.349,15.349,0,0,1-8.165,8.168A14.962,14.962,0,0,1,135.381,246.75Zm-2.463-8.7-6.078-6.078,1.209-1.209,4.869,4.869L149.541,219l1.209,1.209Z" transform="translate(-120 -216)" fill="#575353"/>
</svg>
